<?xml version="1.0" encoding="UTF-8" standalone="no"?>
<!-- Created with Inkscape (http://www.inkscape.org/) -->

<svg
   width="179.87717mm"
   height="229.10629mm"
   viewBox="0 0 179.87717 229.10629"
   version="1.1"
   id="svg5"
   xml:space="preserve"
   xmlns:inkscape="http://www.inkscape.org/namespaces/inkscape"
   xmlns:sodipodi="http://sodipodi.sourceforge.net/DTD/sodipodi-0.dtd"
   xmlns="http://www.w3.org/2000/svg"
   xmlns:svg="http://www.w3.org/2000/svg"><sodipodi:namedview
     id="namedview7"
     pagecolor="#ffffff"
     bordercolor="#666666"
     borderopacity="1.0"
     inkscape:showpageshadow="2"
     inkscape:pageopacity="0.0"
     inkscape:pagecheckerboard="0"
     inkscape:deskcolor="#d1d1d1"
     inkscape:document-units="mm"
     showgrid="false" /><defs
     id="defs2" /><g
     inkscape:label="Layer 1"
     inkscape:groupmode="layer"
     id="layer1"
     transform="translate(-238.13071,-19.350028)"><path
       style="fill:#000000;stroke-width:1"
       d="m 314.90039,247.28083 c -0.41546,-1.64996 -0.36811,-4.5831 0.11148,-6.90492 0.2241,-1.08497 1.34443,-4.80066 2.4896,-8.25707 2.52135,-7.61004 3.03636,-9.96143 2.85415,-13.03127 -0.13803,-2.32556 -0.8365,-4.4874 -2.54636,-7.88133 -3.84704,-7.63599 -2.83537,-16.25913 2.21909,-18.91486 1.56045,-0.8199 4.28753,-0.76316 6.21772,0.12935 3.22255,1.4901 4.74693,3.61714 6.59643,9.20434 1.19641,3.61427 3.34538,8.20785 5.0287,10.74922 1.88101,2.83983 4.93002,5.70655 8.93898,8.40457 1.56204,1.05124 3.34833,3.02848 4.13051,4.57205 0.76309,1.50588 1.22016,3.44753 0.742,3.152 -0.16567,-0.10238 -0.30121,-0.45776 -0.30121,-0.78973 0,-0.33198 -0.3633,-1.33062 -0.80734,-2.21922 -0.8304,-1.66178 -2.584,-3.4801 -4.76713,-4.94309 -4.35454,-2.9181 -7.48508,-6.34765 -10.04453,-11.00391 -1.14915,-2.0906 -3.10609,-6.8911 -3.81799,-9.3658 -1.44842,-5.03497 -4.90065,-8.08109 -9.15848,-8.08109 -6.83514,0 -9.15743,10.00656 -4.48089,19.30775 1.87925,3.73764 2.16112,4.67747 2.31074,7.70479 0.1799,3.64002 -0.21724,5.57624 -2.5854,12.60495 -2.70434,8.02647 -2.99312,9.23713 -2.98296,12.50543 0.005,1.52797 0.14218,3.10555 0.30539,3.50573 0.16321,0.40018 0.19476,0.7276 0.0701,0.7276 -0.12465,0 -0.35982,-0.52897 -0.52262,-1.17549 z m 9.14041,-2.30728 c -0.66005,-1.03192 -1.23432,-3.40046 -1.23432,-5.09086 0,-0.87913 0.50011,-3.98291 1.11136,-6.89729 0.92153,-4.39379 1.1136,-5.81859 1.12448,-8.34158 0.0119,-2.75752 -0.0702,-3.29715 -0.87556,-5.75747 -0.48879,-1.49312 -1.83947,-4.64827 -3.00153,-7.01146 -2.97785,-6.0558 -3.65042,-8.13875 -3.65042,-11.30537 0,-1.81336 0.94403,-4.33348 2.03017,-5.41962 1.3426,-1.3426 2.64145,-1.66821 4.24498,-1.06418 1.62956,0.61383 3.51441,2.18408 4.52818,3.77238 1.49377,2.34032 2.06427,4.2609 3.46734,11.67268 0.87993,4.64828 1.84882,6.24136 9.6593,15.88198 2.28454,2.81985 3.6747,4.81782 4.51027,6.48229 1.36415,2.71739 2.53156,6.93885 2.48568,8.98843 -0.0279,1.24586 -0.0586,1.17378 -0.38075,-0.89382 -1.02761,-6.59516 -3.71996,-11.52927 -8.73881,-16.01507 -6.12747,-5.4767 -6.86352,-6.69296 -8.60652,-14.22143 -1.36661,-5.90274 -1.90632,-7.62125 -3.01757,-9.60835 -1.0756,-1.92336 -2.36922,-3.13974 -3.79265,-3.56621 -1.20612,-0.36136 -2.19653,-0.005 -2.99134,1.07772 -1.17487,1.59977 -1.27443,6.18578 -0.20965,9.65729 0.31244,1.01865 1.33522,3.49933 2.27284,5.51263 0.93763,2.0133 1.90563,4.39455 2.15113,5.29167 0.65015,2.37583 0.57397,8.21732 -0.15065,11.553 -0.30032,1.38244 -0.8067,3.70416 -1.1253,5.15937 -0.32736,1.49523 -0.5932,3.68138 -0.6113,5.02708 -0.028,2.08381 0.059,2.57632 0.697,3.9429 0.74851,1.60338 0.80776,2.2741 0.10364,1.17329 z m 57.76777,-16.47269 c -2.69185,-0.74377 -4.82194,-2.0647 -7.28635,-4.5185 -2.5312,-2.52029 -2.33118,-2.19053 -6.04553,-9.96663 -1.00282,-2.09943 -1.51467,-2.82315 -2.85369,-4.0349 -0.89743,-0.81212 -1.50522,-1.47659 -1.35064,-1.47659 0.52454,0 2.99416,2.43645 3.71852,3.66859 0.39645,0.67435 1.32036,2.59533 2.05314,4.26885 1.63627,3.73688 2.97313,5.73809 5.26607,7.88303 6.76814,6.33126 17.61098,5.43633 17.61098,-1.45355 0,-1.70492 -1.03769,-3.79167 -3.18806,-6.41109 -3.00994,-3.66649 -3.95569,-6.45686 -3.95569,-11.67099 0,-5.88351 1.18258,-9.21776 5.90814,-16.65776 4.77311,-7.51487 5.71651,-12.79779 3.4791,-19.48264 -0.34752,-1.03832 -1.45776,-3.71723 -2.46719,-5.95313 -1.00944,-2.2359 -2.10144,-5.13623 -2.42668,-6.44519 -0.60799,-2.4469 -0.61101,-2.71695 -0.0913,-8.16736 0.16665,-1.7478 0.15272,-1.80954 -0.37075,-1.6434 -0.44932,0.14261 -0.59746,0.0104 -0.85185,-0.76043 -0.41212,-1.24875 -1.98424,-2.52701 -3.10794,-2.52701 -0.67642,0 -1.09808,0.24611 -1.92409,1.12304 -0.58181,0.61768 -1.05783,1.21838 -1.05783,1.3349 0,0.11653 0.4187,0.13332 0.93045,0.0373 1.20027,-0.22518 2.34739,0.25433 2.77659,1.16064 0.18485,0.39035 0.42792,2.3766 0.54015,4.41389 0.27781,5.04311 0.74533,6.87041 3.14015,12.27338 2.18367,4.92661 2.748,8.76298 1.71995,11.69242 -0.67157,1.91364 -3.17769,4.48381 -4.85107,4.97503 -1.85162,0.54354 -3.81368,0.65444 -5.34973,0.30237 -1.88256,-0.43149 -5.27238,-2.07458 -7.24086,-3.50974 -5.27984,-3.84938 -8.27121,-5.52346 -10.71563,-5.99684 -0.80036,-0.155 -3.21113,-0.40359 -5.35726,-0.55243 -3.05441,-0.21183 -4.28561,-0.41499 -5.66769,-0.9352 -0.9711,-0.36552 -1.89408,-0.76547 -2.05107,-0.88878 -0.62517,-0.49105 -3.40721,-1.35292 -4.36709,-1.35292 -2.24255,0 -3.0374,2.13345 -1.80101,4.83408 0.80455,1.75738 1.91127,3.01153 4.88653,5.53748 2.6838,2.27851 5.64145,5.61478 6.44005,7.26447 0.7,1.44601 0.75638,3.51087 0.12228,4.47863 -0.53969,0.82367 -2.07858,1.5177 -2.87364,1.296 -1.27683,-0.35604 -1.86764,-0.86083 -3.92648,-3.35478 -2.59725,-3.14613 -4.38893,-4.41156 -9.13695,-6.45328 -4.15365,-1.78612 -6.57177,-2.99831 -8.39407,-4.20788 -1.61179,-1.06985 -4.12723,-3.56156 -5.25871,-5.20911 -0.90274,-1.31448 -3.1345,-5.92991 -3.62314,-7.4929 -1.17039,-3.74372 -3.78449,-8.82041 -4.92745,-9.56931 -0.74586,-0.4887 -1.5618,-0.26396 -2.11679,0.58305 -0.32679,0.49875 -0.37639,1.03492 -0.23678,2.55963 0.41366,4.51799 -0.56565,8.88094 -2.45214,10.92455 -1.51936,1.64589 -4.24558,3.45503 -4.88517,3.24183 -0.16104,-0.0537 0.19647,-0.35262 0.79447,-0.66431 2.22856,-1.16159 3.64444,-2.89866 4.54736,-5.57892 0.4943,-1.46731 0.5435,-2.15553 0.48072,-6.72493 -0.0683,-4.97219 -0.0546,-5.12073 0.59153,-6.39951 1.42686,-2.82406 3.05595,-2.95326 5.56767,-0.44153 1.88209,1.88209 3.6671,5.41967 5.42254,10.74653 1.51104,4.58524 3.65641,9.09042 5.18313,10.88433 1.52352,1.79014 4.4202,3.71937 8.17265,5.44308 4.98272,2.28885 7.68888,4.42147 11.05462,8.71175 1.61859,2.06321 2.36667,2.61193 3.54998,2.60392 1.32071,-0.009 2.58899,-1.27334 2.58899,-2.58107 0,-0.71909 -2.33952,-3.95608 -4.15082,-5.74312 -0.84575,-0.83442 -2.91161,-2.50528 -4.59081,-3.71303 -5.5202,-3.97036 -7.63899,-6.64216 -7.87702,-9.93296 -0.13521,-1.86926 0.27443,-3.17859 1.32228,-4.22645 1.02483,-1.02483 2.04832,-1.45575 5.63908,-2.37424 l 2.91042,-0.74447 -3.21311,-0.0238 c -6.54677,-0.0484 -10.81288,-0.85325 -13.82345,-2.60786 -0.67083,-0.39098 -3.00563,-2.50674 -5.18844,-4.7017 -2.56117,-2.57541 -4.39103,-4.19277 -5.15938,-4.5602 -3.89056,-1.86051 -6.96571,-1.07779 -8.59896,2.1887 l -0.79375,1.5875 -0.006,5.95312 c -0.005,5.33728 -0.0601,6.07859 -0.52917,7.16596 -0.6596,1.52897 -1.57742,2.61533 -3.01122,3.56418 -0.94456,0.62507 -1.46966,0.76193 -3.28682,0.85661 -2.6418,0.13766 -3.97021,-0.1953 -5.52957,-1.38596 -1.54403,-1.17896 -2.03883,-2.05333 -3.80832,-6.72979 -5.54765,-14.66155 -11.87758,-21.50165 -18.86571,-20.38622 -5.1943,0.82911 -9.12301,5.78685 -9.69512,12.23451 -0.49133,5.53739 2.19537,12.79911 6.43344,17.38854 1.78875,1.93704 2.24627,2.78192 0.70445,1.30085 -2.81236,-2.70155 -5.6268,-7.45831 -6.72306,-11.36284 -0.76862,-2.73756 -0.97332,-7.21911 -0.44315,-9.70182 0.80406,-3.7653 3.07911,-7.14307 5.92179,-8.79207 1.6019,-0.92924 1.64311,-0.98101 1.65365,-2.07747 0.007,-0.77016 -0.10117,-1.12448 -0.34457,-1.12448 -0.19546,0 -1.21049,0.60052 -2.25563,1.33449 -3.15621,2.21652 -5.8392,6.35652 -6.81175,10.51092 -0.64651,2.76164 -0.39654,8.02848 0.50847,10.71349 1.38354,4.1047 3.4518,7.58934 8.16514,13.75675 3.19103,4.17548 4.03461,8.26444 2.47505,11.99698 -0.61896,1.48139 -0.73135,0.93693 -0.13213,-0.64009 0.95905,-2.524 0.59958,-5.49308 -1.0644,-8.79151 -0.48945,-0.97022 -3.12163,-4.53274 -3.70487,-5.01436 -0.87468,-0.72229 -4.58378,-5.31384 -5.36235,-6.63815 -2.11926,-3.60479 -2.82325,-6.26543 -3.6341,-13.73477 -0.47415,-4.36777 -0.93541,-4.92686 -5.46106,-6.61937 -2.88342,-1.07834 -5.10865,-2.55673 -7.50943,-4.98908 -3.55969,-3.60651 -6.4335,-8.6069 -7.99516,-13.91148 -0.65563,-2.22697 -0.80475,-3.28055 -0.91928,-6.49465 -0.19997,-5.61209 0.55219,-9.23094 2.88711,-13.89062 1.39439,-2.78272 2.72436,-4.54149 6.34538,-8.391196 4.99408,-5.30949 5.89468,-6.91681 5.89816,-10.52651 0.002,-1.79285 -0.11245,-2.46362 -0.56298,-3.3073 -0.80487,-1.50724 -2.53881,-3.02363 -4.98475,-4.35932 -6.19027,-3.3804 -9.61423,-6.89785 -11.78101,-12.10269 -0.91982,-2.20949 -1.30473,-5.252473 -0.90055,-7.119403 0.18533,-0.85605 0.25089,-0.52373 0.39809,2.01788 0.2414,4.167963 0.82933,5.661793 3.13115,7.955673 2.78322,2.77363 6.33997,4.21416 9.44662,3.82601 2.2659,-0.2831 4.26884,-1.46095 6.57237,-3.86494 1.12319,-1.17219 2.41894,-2.36098 2.87942,-2.64176 1.74325,-1.06295 3.98005,-0.47436 6.52578,1.71722 1.91017,1.64442 3.11976,2.33999 6.49363,3.73413 4.00747,1.65596 6.72077,3.44152 6.73077,4.42936 0.008,0.81408 -0.75086,0.81022 -2.45177,-0.0125 -2.30518,-1.11494 -4.12229,-1.48748 -7.33304,-1.50342 -2.25273,-0.0112 -2.97733,0.085 -3.83145,0.5084 -2.73544,1.35607 -4.9111,5.03677 -6.33814,10.72261 -1.10356,4.39697 -1.20137,4.65159 -2.62603,6.83653 -1.09783,1.68369 -1.9839,2.61051 -7.48758,7.831946 -1.3331,1.26474 -2.97162,3.11601 -3.64115,4.11392 -3.85316,5.74303 -4.7532,12.47627 -2.64318,19.77376 2.435,8.42146 7.55652,14.52111 13.93458,16.59587 1.98671,0.64626 2.57876,0.72622 4.61186,0.62283 2.91223,-0.14809 4.1441,-0.73902 7.09504,-3.40345 2.00345,-1.80894 4.20151,-3.39354 5.22553,-3.76713 0.33646,-0.12275 0.46302,-0.46046 0.46302,-1.23556 0,-0.59677 -0.1277,-1.06664 -0.28989,-1.06664 -0.50833,0 -1.89007,1.09389 -4.45506,3.52698 -1.54449,1.46505 -3.02508,2.60985 -3.88389,3.00302 -5.03986,2.30733 -10.38735,0.56025 -14.54352,-4.75152 -4.6849,-5.9875 -5.63179,-12.26438 -3.14239,-20.83061 1.68749,-5.8068 3.25045,-8.03858 7.0564,-10.07595 3.84077,-2.05601 6.72658,-5.25221 8.93678,-9.897956 1.16516,-2.44911 1.49425,-3.75745 1.86172,-7.40144 0.28898,-2.86578 0.7987,-4.1802 2.18167,-5.62602 1.21894,-1.27433 2.7154,-1.75182 5.01883,-1.60141 2.21628,0.14472 3.62558,0.75973 5.62497,2.45473 0.72761,0.61683 1.73964,1.37549 2.24896,1.68589 3.36094,2.04837 5.54019,-1.54264 3.48786,-5.74738 -1.0962,-2.24586 -3.19449,-3.93245 -7.67969,-6.17288 -4.66966,-2.33252 -6.45454,-3.88143 -7.4108,-6.43101 -1.04275,-2.780193 -2.45733,-3.836453 -5.13795,-3.836453 -1.90518,0 -3.59826,0.87927 -6.19165,3.215503 -3.3215,2.99214 -3.83132,3.26812 -6.02031,3.25893 -1.43037,-0.006 -2.14346,-0.15117 -3.02582,-0.61597 -3.3653,-1.77272 -5.85704,-6.403703 -5.85704,-10.885543 0,-3.65117 1.26832,-6.498743 4.23333,-9.504515 1.98653,-2.013837 2.21885,-2.202117 4.81328,-3.900919 4.97247,-3.255902 6.71866,-6.294231 7.23443,-12.587695 0.17555,-2.142119 1.18825,-4.68798 1.9586,-4.923824 0.2475,-0.07577 0.17657,0.142534 -0.20317,0.625295 -0.70778,0.899803 -1.26847,2.84502 -1.48624,5.156242 -0.567,6.01781 -1.95605,8.239062 -7.70471,12.320733 -1.92777,1.368756 -4.12539,3.174897 -4.8836,4.013644 -1.72422,1.907376 -3.12732,4.774094 -3.4914,7.13341 -0.72755,4.714689 1.8981,10.387652 5.64795,12.202912 2.19487,1.06252 5.02999,0.65697 6.74483,-0.96482 3.76133,-3.557223 5.47723,-4.660523 7.7086,-4.956523 2.78983,-0.37009 4.47242,0.8335 6.23747,4.461773 1.37194,2.82018 2.03135,3.37941 6.76512,5.73733 3.72602,1.85595 4.66972,2.48603 6.42703,4.29115 3.25459,3.34314 3.49098,7.69433 0.48564,8.93918 -1.17111,0.48509 -2.55496,-0.0645 -4.63612,-1.84112 -2.01666,-1.72159 -4.66824,-2.91893 -6.46416,-2.91893 -1.44185,0 -3.18734,0.68434 -4.16674,1.63361 -1.24701,1.20865 -1.85275,2.89794 -2.16646,6.04191 -0.15261,1.5294 -0.51974,3.55346 -0.81586,4.49792 -1.0906,3.47849 -4.25138,8.274446 -6.80497,10.325406 -0.62779,0.50423 -2.08842,1.45392 -3.24583,2.11042 -3.39847,1.92765 -4.68433,3.48717 -6.13331,7.43859 -3.36716,9.18239 -2.63166,16.70391 2.23888,22.89578 4.01201,5.10043 9.42159,6.9236 14.03134,4.72892 1.03079,-0.49075 2.46627,-1.60626 4.26282,-3.31262 1.48978,-1.41499 3.08704,-2.73882 3.54946,-2.94184 0.89198,-0.39161 1.18055,-1.01795 1.03914,-2.25539 -0.0794,-0.69502 -0.16493,-0.75184 -1.00598,-0.66857 -1.09494,0.10841 -2.24613,0.67217 -4.86912,2.38447 -2.4773,1.6172 -3.80879,1.99226 -6.51628,1.83552 -5.11624,-0.29617 -9.23131,-4.12253 -10.75401,-9.99954 -0.53749,-2.07448 -0.58917,-6.38838 -0.10143,-8.46667 1.21294,-5.16836 4.64265,-8.74793 10.54923,-11.01015 3.4208,-1.31017 4.7205,-1.98447 6.07147,-3.14997 1.4027,-1.21014 2.04441,-2.43545 2.42983,-4.639676 0.46738,-2.673 1.00846,-4.05895 1.9326,-4.95032 1.62301,-1.56544 3.81953,-1.83552 5.98863,-0.73636 2.29075,1.16082 3.95799,3.49161 7.29543,10.198986 2.58755,5.20029 3.93739,6.39297 7.25472,6.41004 2.0687,0.0106 4.78914,-0.50807 4.78914,-0.91317 0,-0.15754 -0.29862,-0.91768 -0.6636,-1.68919 -0.79438,-1.67916 -1.46714,-1.95185 -4.82115,-1.95413 -2.51305,-0.002 -4.06681,-0.50455 -4.7984,-1.55292 -0.26771,-0.38363 -0.89529,-1.65061 -1.39463,-2.8155 -1.21272,-2.829166 -2.63126,-4.920296 -4.80023,-7.076276 -0.98819,-0.98227 -1.67876,-1.78594 -1.53461,-1.78594 0.48826,0 3.79822,3.5618 4.91753,5.29167 0.61203,0.94588 1.44157,2.54905 1.84343,3.562586 1.38394,3.4905 1.94004,3.8826 5.6939,4.01466 1.38328,0.0487 2.79855,0.15581 3.14505,0.23811 l 0.63,0.14963 -0.55218,-0.87364 c -0.63464,-1.0041 -1.53574,-1.25904 -4.27969,-1.2108 -2.72506,0.0479 -3.13543,-0.34906 -4.35679,-4.214576 -0.86426,-2.73536 -1.77377,-4.10212 -4.19896,-6.31 -3.60308,-3.28023 -5.29921,-3.73165 -8.33018,-2.21706 -2.76466,1.38152 -4.50482,3.87061 -5.999,8.58088 -1.07547,3.390296 -1.04551,3.336156 -2.25049,4.066756 -1.13843,0.69025 -2.01444,0.71967 -2.35722,0.0792 -0.28147,-0.52593 -0.1294,-0.91349 1.15237,-2.93687 1.51291,-2.388256 2.06378,-4.232326 2.78955,-9.338196 0.3644,-2.56357 0.70914,-4.01206 1.17252,-4.92648 1.19356,-2.35539 3.0673,-3.39915 5.62771,-3.13489 1.6599,0.17131 3.10716,0.94732 5.08766,2.72796 0.90172,0.81073 1.83021,1.37136 2.62624,1.58577 l 1.23138,0.33167 -0.95526,0.0179 c -1.0423,0.0195 -2.29704,-0.70639 -3.9062,-2.25976 -2.56174,-2.47292 -5.74531,-2.86172 -7.98705,-0.97542 -1.38815,1.16804 -2.12648,3.25958 -2.63767,7.4719 -0.42429,3.49634 -1.20812,6.00467 -2.67413,8.557496 -1.67509,2.91694 -1.50966,3.79734 0.485,2.58112 1.13867,-0.69429 1.53723,-1.37427 2.17795,-3.715806 1.60948,-5.88196 5.31656,-9.83319 9.28169,-9.89301 1.8585,-0.0281 3.15325,0.7024 6.01205,3.39175 2.31059,2.17364 3.38041,3.89854 4.27838,6.89814 0.8245,2.754156 0.6724,2.660676 3.16596,1.945856 1.1836,-0.33929 2.15199,-0.69179 2.15199,-0.78332 0,-0.0915 -0.53578,-0.965416 -1.19063,-1.941956 -0.96886,-1.44484 -1.19062,-1.99588 -1.19062,-2.9586 0,-1.39741 0.43368,-2.32087 1.59945,-3.40573 1.19466,-1.11177 2.3693,-3.01651 2.3693,-3.84197 0,-0.38261 -0.20836,-0.88083 -0.46302,-1.10715 -2.93801,-2.61099 -3.13686,-2.89758 -3.58356,-5.16485 -1.00029,-5.07709 -3.72562,-8.41166 -9.22449,-11.2866 -5.0144,-2.62166 -6.32616,-4.07048 -8.17253,-9.026513 -1.45551,-3.906881 -3.25047,-7.585468 -4.26526,-8.74126 -1.00161,-1.140762 -2.54795,-1.974366 -3.66249,-1.974366 -1.17934,0 -2.1258,0.572235 -4.43439,2.681036 -2.18623,1.99703 -3.37577,2.733548 -4.83573,2.99411 -1.95317,0.348585 -3.4396,-1.594231 -2.92931,-3.828714 0.51735,-2.265432 3.44677,-5.355043 6.31833,-6.663844 2.40339,-1.09542 5.9585,-1.347425 7.75408,-0.54965 1.49419,0.663871 2.70034,1.685689 3.69324,3.128811 1.16708,1.696294 4.04941,7.62544 4.88242,10.043459 2.11932,6.151881 3.9023,8.117151 10.12014,11.154851 6.09759,2.97895 7.02698,4.02005 7.44356,8.33829 0.42801,4.43668 0.60923,4.59358 5.59234,4.84192 l 3.57188,0.17801 1.45521,-0.76229 c 0.80036,-0.41927 2.70536,-1.43006 4.23333,-2.24621 2.72154,-1.45368 5.84573,-2.60462 6.97318,-2.56889 0.3121,0.01 -0.38149,0.30062 -1.54131,0.64607 -2.04226,0.60827 -3.34923,1.21613 -8.55893,3.98069 -2.70526,1.43556 -2.77927,1.44606 -7.58379,1.07533 -2.42836,-0.18738 -3.33286,-0.53683 -3.83941,-1.48333 -0.15476,-0.28917 -0.43939,-1.80961 -0.63252,-3.37876 -0.39803,-3.23399 -0.74435,-4.0696 -2.25067,-5.43047 -1.16857,-1.05573 -2.25822,-1.66086 -5.3029,-2.94495 -4.00537,-1.68925 -6.88492,-4.21456 -8.45087,-7.411293 -0.43316,-0.88424 -1.26034,-2.87072 -1.83819,-4.414386 -1.91235,-5.108655 -4.46269,-9.732679 -6.21645,-11.271036 -3.10983,-2.72788 -9.02661,-1.923692 -12.74549,1.732323 -2.64556,2.600843 -3.52543,5.407694 -2.13197,6.801156 1.3438,1.343803 3.53096,0.592347 6.62451,-2.27603 2.32263,-2.153576 3.17513,-2.630786 4.69966,-2.630786 1.18106,0 3.0021,0.928896 3.94141,2.010484 0.87587,1.008538 2.34445,4.035758 3.92217,8.084825 2.25626,5.790523 3.28694,6.988733 8.153,9.478333 5.67159,2.90173 8.40883,6.214 9.58278,11.59587 l 0.50175,2.30027 1.89688,1.77151 c 1.83247,1.71135 1.89078,1.80403 1.71717,2.72947 -0.16994,0.90585 -0.1501,0.9421 0.36472,0.66657 0.37276,-0.19949 0.70148,-0.20732 1.04247,-0.0248 0.73156,0.39152 0.87225,1.00968 0.42613,1.87237 -0.21724,0.42011 -0.395,1.17589 -0.395,1.67951 0,1.63756 2.14855,2.85429 4.2788,2.42308 0.48432,-0.098 2.19898,-0.70424 3.81036,-1.34713 1.61138,-0.64288 3.49266,-1.24604 4.18063,-1.34033 1.05789,-0.145 1.23858,-0.25336 1.17127,-0.70241 -0.0438,-0.29203 -0.41734,-0.78103 -0.83014,-1.08667 -0.64382,-0.47669 -1.09531,-0.55109 -3.175,-0.52315 -1.44973,0.0195 -2.21171,-0.0528 -1.89529,-0.17984 0.93478,-0.37522 4.07214,-0.27813 4.90345,0.15175 1.35421,0.70029 2.14622,3.03886 1.59492,4.70931 -0.16551,0.5015 -0.83215,1.39527 -1.48142,1.98616 -1.29659,1.17999 -1.34721,1.30529 -0.81917,2.02743 0.51566,0.70521 2.75823,0.80902 8.63451,0.3997 6.33831,-0.4415 7.43641,-0.26765 11.97298,1.895576 3.14042,1.49748 3.49929,1.60769 5.18351,1.59184 2.29887,-0.0216 3.76871,-0.57914 6.94254,-2.6333 4.61868,-2.989286 8.07312,-4.295446 11.34458,-4.289506 3.11169,0.006 5.71197,0.99803 7.62334,2.90939 1.25787,1.257866 1.53179,2.205816 1.26181,4.366706 -0.14116,1.12983 -0.0917,1.54149 0.22327,1.85641 0.47058,0.47058 0.2899,1.1831 -0.30001,1.1831 -0.22327,0 -0.77608,-0.43596 -1.22846,-0.9688 -0.45238,-0.53284 -1.77501,-1.93305 -2.93918,-3.11157 -2.65307,-2.685786 -3.83528,-3.185346 -7.12897,-3.012476 -2.35496,0.1236 -1.85727,-0.0762 -8.87832,3.563586 -3.87656,2.00963 -6.46636,1.858 -11.38874,-0.66678 -1.69338,-0.86857 -3.7148,-1.76806 -4.49205,-1.99888 -1.71558,-0.509466 -5.46033,-0.548696 -10.88805,-0.11406 -3.52318,0.28213 -3.99446,0.2681 -5.09373,-0.151716 -1.84074,-0.70299 -1.88033,-1.3939 -0.18274,-3.18886 1.2213,-1.29134 1.35364,-1.54922 1.35364,-2.63773 0,-0.97382 -0.0893,-1.20586 -0.46302,-1.20332 -0.83146,0.006 -3.05733,0.70309 -5.79454,1.81565 -3.68724,1.49872 -5.48248,1.49044 -7.15632,-0.033 -0.84375,-0.76793 -1.01611,-1.91261 -0.47028,-3.12306 0.25187,-0.55854 0.38695,-1.20052 0.30019,-1.42663 -0.33731,-0.879 -1.30428,-0.40366 -3.35927,1.65133 -3.21435,3.21435 -3.17698,3.85139 0.5309,9.050066 3.75251,5.26125 5.06407,7.85721 6.22271,12.31659 1.04862,4.03593 0.76264,6.36051 -0.89139,7.24572 -0.64176,0.34346 -1.73726,-0.014 -1.97977,-0.64598 -0.36974,-0.96354 0.0836,-3.04135 0.66356,-3.04135 0.11981,0 0.0186,0.41785 -0.22496,0.92855 -0.93417,1.95897 0.7391,3.43739 2.03502,1.79805 0.52887,-0.66902 0.57663,-0.97706 0.48426,-3.12347 -0.0564,-1.30969 -0.18986,-2.52248 -0.29664,-2.6951 -0.12952,-0.20937 -0.59411,0.11374 -1.39557,0.97056 -2.68479,2.87026 -5.89456,3.18795 -8.71009,0.8621 -1.06235,-0.87759 -2.74816,-3.32131 -3.61845,-5.24524 -0.38942,-0.86088 -1.08083,-2.39867 -1.53646,-3.41732 -2.26113,-5.05515 -5.45021,-7.425306 -7.55493,-5.6149 -0.85203,0.73289 -0.94134,1.50343 -0.53253,4.59448 0.2851,2.15565 0.0274,3.34869 -0.96822,4.48265 -1.23815,1.41018 -2.96638,2.1483 -6.47267,2.76447 -1.72108,0.30244 -3.64204,0.74057 -4.2688,0.97362 -2.29497,0.85332 -3.74257,3.59807 -3.40425,6.45466 0.45435,3.8363 3.72771,6.93842 7.32143,6.93842 1.21469,0 1.90314,-0.19841 3.59569,-1.03628 1.9251,-0.95299 2.2992,-1.04355 4.65435,-1.12664 3.37749,-0.11917 4.99987,0.3457 6.77426,1.94103 1.38388,1.24423 4.92847,6.29043 4.76437,6.78273 -0.052,0.15596 -0.71211,-0.72709 -1.46694,-1.96232 -1.86568,-3.05307 -3.69394,-4.99946 -5.41747,-5.76751 -1.16999,-0.52138 -1.84145,-0.62279 -4.17251,-0.63018 -2.71653,-0.009 -2.82505,0.0146 -4.89479,1.04537 -1.83901,0.9159 -2.34226,1.05187 -3.83646,1.0365 -2.14495,-0.0221 -3.69442,-0.68812 -5.24822,-2.25601 -1.59113,-1.60557 -2.21533,-2.9389 -2.36736,-5.05688 -0.22687,-3.16056 0.86873,-5.40298 3.18349,-6.51583 0.61864,-0.29741 2.55088,-0.79077 4.29387,-1.09634 3.57763,-0.62722 5.17188,-1.23483 6.42719,-2.44958 1.24226,-1.20211 1.49011,-2.39854 1.08696,-5.247 -0.29756,-2.10238 -0.2852,-2.44983 0.11715,-3.29358 0.29398,-0.61647 0.77305,-1.07832 1.38283,-1.3331 2.42292,-1.012356 4.9393,1.25155 7.64415,6.87721 2.38605,4.96261 3.97802,6.23061 7.82161,6.22989 1.66244,-2.6e-4 2.19763,-0.1174 3.29888,-0.72179 1.4755,-0.80978 2.54338,-2.16985 2.33359,-2.97209 -0.16593,-0.6345 -0.12246,-0.63255 -2.37491,-0.10665 -2.1546,0.50305 -4.59504,0.39579 -5.95841,-0.26188 -1.91507,-0.9238 -4.21495,-3.3701 -6.00232,-6.38447 -2.00441,-3.380396 -3.10353,-4.663476 -4.62635,-5.400666 -1.4183,-0.68658 -2.34782,-0.68751 -3.76026,-0.004 -1.43584,0.69507 -1.86927,1.62093 -2.17207,4.639666 -0.41784,4.16577 -1.31779,5.30339 -6.27044,7.92641 -4.20269,2.22583 -7.17072,4.49684 -7.90825,6.05107 -1.13293,2.38747 -0.99818,5.35732 0.37742,8.31822 1.06261,2.28721 2.04439,3.44677 3.82788,4.52107 1.3185,0.79421 1.78037,0.92228 3.66414,1.016 1.25248,0.0623 3.235,-0.069 4.73231,-0.31345 5.78926,-0.94514 8.33807,-0.35784 12.65354,2.91565 2.528,1.91761 5.28171,5.15155 9.09967,10.68658 2.31897,3.36188 3.55082,4.74817 5.09955,5.73888 1.81195,1.15909 3.81063,1.54433 5.83976,1.12559 1.87582,-0.3871 2.90892,-0.90649 6.35514,-3.19507 1.57742,-1.04754 3.35438,-1.99474 4.20737,-2.24271 3.04618,-0.88555 5.74512,0.16797 8.8046,3.43685 5.84102,6.24081 8.93603,8.54195 12.67481,9.42372 1.73541,0.40928 5.84854,0.20937 7.96269,-0.38702 0.80036,-0.22577 2.70662,-0.48569 4.23612,-0.57759 3.47542,-0.20881 5.90872,0.24474 10.40229,1.93894 6.30189,2.37599 7.74886,2.76193 10.94984,2.92056 2.58442,0.12808 3.19873,0.0723 4.77098,-0.43325 3.42026,-1.09976 4.95789,-3.32253 4.95688,-7.16557 -7.9e-4,-2.68896 -0.59227,-4.06532 -2.26949,-5.28029 -1.88954,-1.36878 -3.41203,-1.73117 -7.27311,-1.73117 -3.45507,0 -3.46612,0.002 -4.86258,0.87006 -0.7698,0.47854 -1.45118,0.81852 -1.51417,0.75553 -0.063,-0.063 0.59942,-0.66393 1.47204,-1.3354 0.87262,-0.67146 1.66461,-1.46667 1.75997,-1.76713 0.21893,-0.6898 -0.20225,-1.00646 -2.37525,-1.78578 -0.92133,-0.33043 -1.89645,-0.84824 -2.16694,-1.15071 -0.43982,-0.49183 -0.34548,-0.47619 0.89283,0.14801 2.28644,1.15255 4.12971,1.50234 8.80465,1.67082 4.87449,0.17568 7.08744,-0.0848 9.5592,-1.12514 3.05467,-1.28569 5.23238,-0.58923 6.6671,2.13224 0.4118,0.78114 0.41853,0.78324 0.42323,0.1323 0.007,-0.90762 -0.92403,-2.88541 -1.78513,-3.79394 -0.9497,-1.00201 -1.83574,-1.43718 -4.53321,-2.22646 -2.48149,-0.72609 -2.90423,-0.75205 -7.55588,-0.46399 -1.92364,0.11912 -4.2945,0.082 -6.01543,-0.0941 -2.81833,-0.28842 -2.85579,-0.28477 -4.81352,0.46909 -1.0852,0.41787 -2.04006,0.6928 -2.12191,0.61095 -0.0818,-0.0818 0.95315,-0.58452 2.29998,-1.11704 3.2288,-1.27664 9.83761,-4.58367 10.63765,-5.32307 0.47075,-0.43506 1.08889,-0.23378 1.52106,0.49531 0.49332,0.83222 3.442,3.70198 4.47652,4.3567 0.38097,0.24111 1.63113,0.7093 2.77813,1.04042 1.79899,0.51935 2.27624,0.79185 3.4745,1.9839 0.76399,0.76003 1.38906,1.28366 1.38906,1.16364 0,-0.42953 -2.31298,-3.33853 -3.46062,-4.35237 -1.60874,-1.42119 -3.23104,-3.40027 -4.4915,-5.47926 l -1.06098,-1.75 -1.78968,0.12805 c -1.55613,0.11134 -1.96818,0.0376 -3.15757,-0.56511 -0.75234,-0.38125 -1.49164,-0.69317 -1.64289,-0.69317 -0.15126,0 -1.19701,0.71506 -2.3239,1.58901 -7.70978,5.97929 -11.69752,8.83579 -11.94995,8.56 -0.0842,-0.092 -0.0191,-0.2155 0.14466,-0.27442 0.16377,-0.0589 0.93768,-0.57384 1.71979,-1.14426 0.78211,-0.57043 1.88547,-1.36912 2.45192,-1.77488 0.56644,-0.40576 2.98581,-2.25148 5.37636,-4.10161 l 4.34647,-3.36387 1.10593,0.44002 c 0.60826,0.24202 1.3907,0.58656 1.73877,0.76565 0.41543,0.21375 1.24607,0.2742 2.41778,0.17597 2.00601,-0.16818 1.63213,-0.45538 3.4545,2.65367 0.49676,0.8475 2.15336,2.81368 3.68133,4.3693 4.24226,4.31901 4.90098,6.10745 4.35244,11.81688 -0.48851,5.08454 -0.15617,6.65565 2.79838,13.22917 2.71497,6.04045 3.198,7.6584 3.35703,11.24479 0.23048,5.19759 -0.7958,8.22524 -5.13253,15.14165 -4.11689,6.56581 -5.18756,9.72883 -5.21885,15.41772 -0.031,5.64137 0.66611,7.56347 4.58644,12.64541 0.98716,1.27966 1.93119,2.78175 2.09784,3.33799 0.37982,1.26772 0.39101,3.45977 0.0227,4.43844 -0.45549,1.21022 -2.10038,2.69098 -3.6214,3.26007 -1.64441,0.61525 -5.51263,0.69348 -7.47534,0.15117 z m 2.00438,-54.13755 c 3.09926,-1.50033 3.80569,-6.13671 1.81635,-11.92086 -0.84466,-2.4559 -1.06129,-4.83784 -0.66906,-7.35665 0.1676,-1.07634 0.37786,-3.2351 0.46724,-4.79724 l 0.16251,-2.84025 -0.7339,-0.48087 -0.73391,-0.48087 -0.75438,0.84429 c -0.99468,1.11324 -1.17805,1.96745 -0.80747,3.76159 0.64721,3.13347 0.19619,5.66794 -1.6157,9.0793 -1.11854,2.10595 -2.41646,3.1415 -5.03391,4.01633 -2.92062,0.97616 -5.83186,1.11523 -11.10435,0.53046 -4.73182,-0.52481 -9.24472,-0.46222 -10.19356,0.14137 -0.69105,0.43961 -0.97948,1.28856 -0.74933,2.20553 0.29167,1.16212 1.70286,1.55247 6.37964,1.7647 6.20411,0.28154 10.69688,1.48221 15.8769,4.24302 3.62714,1.93316 5.66029,2.27413 7.69293,1.29015 z m -4.92568,-35.92624 0.91515,-0.19694 -1.17974,-0.68449 c -2.8946,-1.67944 -2.48447,-1.63678 -6.11647,-0.63626 -1.79594,0.49474 -3.56301,1.01451 -3.92681,1.15505 -0.65058,0.25133 -0.64623,0.25821 0.26458,0.41875 2.32066,0.40904 8.03004,0.37714 10.04329,-0.0561 z m -22.37651,83.88082 c -1.79574,-1.97058 -3.59433,-3.08581 -8.03969,-4.98507 -5.092,-2.17552 -7.93516,-4.36457 -9.38491,-7.2258 -0.59857,-1.18133 -0.96784,-2.3233 -2.91387,-9.01111 -1.55652,-5.3492 -3.37463,-8.26535 -7.84485,-12.58273 -4.16057,-4.01832 -6.15851,-4.59244 -14.11992,-4.05743 -2.47385,0.16625 -5.56948,0.23627 -6.87917,0.15561 -7.22605,-0.44501 -11.54401,-3.8481 -17.3551,-13.67795 -0.95931,-1.62273 -1.29298,-1.98438 -1.83087,-1.98438 -1.20589,0 -0.99666,1.21793 0.88737,5.1653 0.93609,1.96127 2.22838,4.45892 2.87175,5.55033 4.03552,6.84579 5.30633,10.60664 5.31948,15.7427 0.008,2.98638 -0.83774,7.58877 -1.46517,7.97655 -0.18993,0.11738 -0.22464,-0.0361 -0.10424,-0.46069 0.0993,-0.35018 0.36877,-1.29153 0.59883,-2.0919 0.23006,-0.80036 0.47955,-2.77723 0.55442,-4.39304 0.15716,-3.392 -0.29521,-6.16095 -1.52936,-9.36113 -0.91438,-2.371 -4.40809,-8.50889 -7.17806,-12.61069 -2.16551,-3.20673 -2.58345,-4.46426 -2.04335,-6.14824 0.45563,-1.42064 0.97243,-1.88273 2.10561,-1.88273 0.80526,0 1.14588,0.17763 1.826,0.95225 0.45985,0.52373 1.1083,1.56553 1.44101,2.3151 0.98696,2.2236 2.43691,4.284 4.38718,6.23427 3.79206,3.79206 7.41066,5.57098 11.34402,5.57677 2.31014,0.003 4.0977,-0.42667 7.61716,-1.83258 4.34686,-1.73644 7.128,-1.69486 10.88757,0.16278 3.56435,1.76118 7.60926,6.16757 9.93412,10.8219 1.05499,2.11208 2.17369,5.66814 3.31592,10.54049 1.44431,6.16094 4.26619,10.69789 9.00952,14.48528 1.21477,0.96996 2.81749,2.0876 3.5616,2.48365 2.48192,1.32099 4.04963,2.46867 5.41934,3.96736 1.12024,1.22572 1.6423,2.01849 1.2914,1.96107 -0.0364,-0.006 -0.79406,-0.80962 -1.68374,-1.78594 z m 27.19285,1.01136 c -4.53207,-1.65079 -7.23573,-4.83069 -8.93626,-10.51033 -0.66001,-2.20437 -0.70891,-2.76642 -0.90488,-10.4001 -0.22531,-8.77701 -0.49534,-10.90111 -1.86181,-14.64532 -1.08725,-2.97912 -2.68249,-5.53624 -4.73286,-7.58661 -2.18694,-2.18694 -3.92779,-3.04713 -6.91061,-3.41466 -1.88058,-0.23172 -2.67786,-0.50263 -5.10261,-1.73381 -2.6402,-1.34058 -4.40226,-1.82595 -4.40226,-1.21261 0,0.41496 1.29871,1.20374 5.01129,3.04361 1.95585,0.96928 4.31244,2.30205 5.23687,2.96171 4.5462,3.24409 6.68517,7.01593 6.68517,11.78853 0,6.09737 -3.77268,11.30605 -9.66693,13.34643 -1.79446,0.62118 -2.51915,0.72759 -4.88515,0.71736 -3.94781,-0.0171 -6.64615,-1.01903 -9.25906,-3.43812 -1.83589,-1.69971 -3.03534,-3.87686 -4.51941,-8.20331 -2.95802,-8.62335 -4.38337,-10.76751 -9.37257,-14.09918 -5.97704,-3.99131 -9.89536,-9.97693 -11.08392,-16.93178 -0.41061,-2.4027 -0.8022,-3.18384 -1.33098,-2.65505 -0.13666,0.13666 -0.27437,2.36413 -0.30602,4.94992 -0.0639,5.2176 -0.4491,7.07577 -1.92489,9.28415 -2.71672,4.06533 -8.43152,5.3218 -13.47361,2.96232 -3.78043,-1.76908 -6.38748,-5.59002 -8.1267,-11.91066 -1.80691,-6.56661 -4.08107,-10.15678 -7.49028,-11.82476 -2.78955,-1.3648 -6.10798,-0.68432 -7.75577,1.59039 -2.28778,3.15818 -1.98376,9.29722 0.71647,14.4677 1.04524,2.00145 1.93508,3.10174 6.54749,8.09597 6.65144,7.20205 8.88591,11.88486 8.56635,17.95265 -0.15954,3.02929 -0.48327,3.99268 -2.64974,7.8853 -1.56465,2.8113 -2.21828,5.10314 -1.91558,6.71669 0.62489,3.33092 3.46801,5.36957 7.04112,5.04879 1.87515,-0.16834 3.28798,-0.89178 4.67029,-2.39142 1.43805,-1.56009 1.95826,-2.62943 3.26107,-6.70334 0.59791,-1.86969 1.38966,-4.2924 1.75944,-5.3838 2.1825,-6.44164 6.11792,-11.1687 10.61855,-12.75458 1.20869,-0.42591 1.99301,-0.50884 4.04284,-0.42747 2.28887,0.0909 2.73872,0.19783 4.49792,1.06961 1.07508,0.53277 2.64048,1.58159 3.47866,2.33071 1.67062,1.49311 4.04987,4.42838 3.79562,4.68263 -0.0881,0.0881 -0.19735,0.1106 -0.24274,0.05 -0.0454,-0.0606 -0.53,-0.7329 -1.07691,-1.49393 -2.116,-2.94438 -5.26003,-5.2391 -8.24252,-6.01594 -4.49318,-1.17033 -8.32049,0.24156 -11.87746,4.38158 -1.68167,1.95732 -1.61264,1.85957 -2.37314,3.36035 -0.85451,1.6863 -1.08811,2.74089 -1.61582,7.2947 -0.69518,5.99906 -2.24782,9.73433 -5.15871,12.41062 -2.77035,2.54709 -6.32602,3.6012 -9.56043,2.83428 -3.5654,-0.8454 -6.3235,-4.2468 -6.31066,-7.78254 0.0106,-2.93012 1.74581,-7.06445 4.33835,-10.33687 3.05609,-3.85753 3.48503,-4.99764 3.03611,-8.06979 -0.71724,-4.90833 -3.00983,-8.7583 -9.03903,-15.17938 -3.68384,-3.92326 -4.85223,-5.415 -6.0978,-7.78532 -1.34606,-2.56157 -2.02205,-5.41403 -2.02706,-8.5536 -0.008,-5.16352 2.11741,-8.03938 6.18345,-8.36576 1.47646,-0.11851 1.86751,-0.039 3.39709,0.69103 2.13356,1.01826 4.46617,3.41871 5.69759,5.8633 0.47432,0.94161 1.39896,3.60323 2.05475,5.9147 1.29238,4.55529 2.48315,7.13332 4.191,9.07354 4.21465,4.78809 11.51619,5.44415 15.71145,1.41171 2.31957,-2.22956 2.96777,-4.59807 2.97337,-10.8647 0.004,-4.49459 0.11618,-5.01385 1.08306,-5.01385 0.50838,0 0.81159,0.70574 1.40451,3.26908 0.49887,2.15676 2.26798,5.98993 4.00078,8.66855 1.73595,2.6835 3.99989,4.84072 7.40619,7.05704 7.98724,5.19692 8.70239,5.92987 11.79457,12.08812 2.61995,5.21776 3.7481,6.59979 6.35075,7.77989 3.24082,1.46946 6.44665,1.35021 9.94937,-0.37007 3.29301,-1.61728 5.09298,-4.22017 5.31762,-7.68966 0.21439,-3.31118 -1.08448,-6.47742 -3.69808,-9.01478 -1.7123,-1.66234 -3.38616,-2.73502 -7.35694,-4.71462 -3.42249,-1.70625 -4.49986,-2.56049 -4.49387,-3.56316 0.005,-0.82914 0.21668,-1.16759 0.98271,-1.57094 0.7111,-0.37442 1.72016,-0.15912 2.99178,0.63833 3.39346,2.12809 5.83114,3.01681 9.07684,3.30921 2.2327,0.20113 2.8374,0.36495 4.23767,1.14803 4.91813,2.75037 8.61532,7.8686 10.20725,14.13049 0.86333,3.39587 1.09201,5.44542 1.33331,11.94972 0.25113,6.76901 0.49605,8.18532 1.91325,11.06406 1.00268,2.03674 3.59362,4.88865 5.58332,6.14571 3.61101,2.28137 2.60645,4.62891 -1.36222,3.18334 z m 0.005,-9.21657 c -1.49077,-3.46541 -2.19342,-6.94304 -2.82411,-13.97746 -0.52282,-5.83119 -0.84781,-7.96324 -1.62038,-10.63004 -1.19739,-4.13324 -3.70496,-8.157 -7.06611,-11.33862 -4.24193,-4.01533 -7.6914,-5.50057 -13.80478,-5.94393 -4.10697,-0.29785 -5.04696,-0.52124 -7.18674,-1.70791 -1.87351,-1.039 -2.90199,-1.13309 -3.89008,-0.35586 -0.54435,0.42819 -0.69714,0.77899 -0.69714,1.60064 0,1.92012 1.21387,3.36421 4.40707,5.24288 5.98104,3.51884 8.99092,7.19058 9.28359,11.32502 0.15343,2.16743 -0.20124,3.5986 -1.25091,5.04763 -1.05938,1.46242 -2.63882,2.24781 -4.52606,2.25062 -2.92804,0.004 -5.17886,-1.80027 -7.38824,-5.92365 -0.81921,-1.5289 -1.80163,-2.83383 -3.17127,-4.21234 -2.00172,-2.01468 -2.9336,-2.57573 -8.59896,-5.17717 -2.25072,-1.03349 -5.44837,-3.33633 -7.5475,-5.43546 -3.35258,-3.35257 -5.27847,-6.6369 -6.73424,-11.48425 -0.73372,-2.44311 -1.78838,-4.47043 -2.99374,-5.75469 -0.37559,-0.40018 -0.56231,-0.7276 -0.41494,-0.7276 0.34606,0 1.17183,0.91325 2.03355,2.24896 0.37552,0.58208 1.26918,2.75793 1.98591,4.83521 1.61213,4.67242 3.18126,7.34717 5.99805,10.22431 3.16271,3.23049 5.29221,4.63751 10.81345,7.14475 2.51644,1.14273 5.0406,2.90287 6.42178,4.47801 0.56156,0.64041 1.75862,2.4084 2.66014,3.92886 2.6235,4.42469 4.5084,5.74616 7.72589,5.41647 1.77118,-0.18149 3.07486,-1.13983 3.96415,-2.91406 0.86635,-1.72846 0.99261,-3.2873 0.43356,-5.35261 -0.93608,-3.45816 -3.65167,-6.50408 -8.12825,-9.11699 -2.85214,-1.66475 -5.08892,-3.73865 -5.35912,-4.96886 -0.43505,-1.98078 0.6627,-3.48863 2.53981,-3.48863 0.68394,0 1.70565,0.35685 3.07656,1.07456 1.99177,1.04274 2.1621,1.08223 5.75332,1.33389 2.03543,0.14264 4.47141,0.43742 5.41327,0.65507 5.73575,1.32546 11.84027,6.58775 15.01542,12.94377 1.79373,3.59068 2.47428,6.6028 3.11371,13.78142 0.59214,6.64763 1.05704,9.29755 2.26582,12.91521 1.10164,3.29703 1.23943,4.25234 0.29754,2.06285 z m 6.88497,-3.69021 c -2.61216,-5.79853 -1.26752,-12.41924 4.58098,-22.55573 3.60224,-6.24333 4.62587,-8.70653 5.17293,-12.4479 0.59417,-4.06359 -0.22938,-7.10647 -3.22666,-11.92185 -4.21167,-6.76641 -4.82574,-9.45829 -3.66756,-16.07735 0.96605,-5.52101 0.55796,-7.70299 -2.12347,-11.35363 -2.71831,-3.70087 -3.3688,-6.00432 -2.52007,-8.92385 0.375,-1.28997 0.74722,-1.84592 2.21505,-3.30842 1.1321,-1.128 2.39127,-2.06515 3.51403,-2.61533 l 1.74973,-0.85741 3.93881,0.0846 c 3.27958,0.0705 4.08273,0.0105 4.7987,-0.3581 0.47295,-0.24351 0.8599,-0.32673 0.8599,-0.18494 0,0.1418 -0.41638,0.43178 -0.92528,0.64442 -0.70341,0.2939 -1.89305,0.36997 -4.96094,0.31723 l -4.03566,-0.0694 -1.43784,0.79375 c -1.97353,1.08947 -4.16124,3.14718 -4.8969,4.60592 -1.58919,3.15124 -0.93024,5.8446 2.56289,10.47533 2.17833,2.88775 2.55377,5.90182 1.47191,11.81669 -0.51366,2.80835 -0.5452,3.41169 -0.27517,5.26437 0.40905,2.80649 1.43906,5.25091 3.96891,9.419 2.58137,4.25296 3.22521,6.0173 3.41237,9.35098 0.24163,4.30369 -0.69978,7.36561 -4.14875,13.49375 -4.08755,7.26277 -5.71711,10.93374 -6.49494,14.6314 -0.73809,3.50878 -0.3686,7.40442 0.94685,9.98292 0.29469,0.57764 0.43467,1.05026 0.31107,1.05026 -0.1236,0 -0.4795,-0.56555 -0.79089,-1.25677 z m 23.228,-7.80453 c -1.44203,-1.50072 -2.47654,-3.39758 -3.00378,-5.50769 -0.59073,-2.36421 -0.5534,-3.20033 0.34766,-7.7883 1.1058,-5.63042 1.43288,-9.30589 1.25756,-14.13123 -0.15696,-4.32016 -0.57644,-6.5475 -2.29667,-12.19481 -0.98278,-3.22635 -1.32998,-5.19306 -1.32998,-7.53363 0,-3.55181 0.84253,-5.59381 3.98801,-9.66553 2.61975,-3.39116 3.62518,-5.81854 4.93114,-11.90501 0.0781,-0.3638 0.19723,-0.51102 0.26483,-0.32716 0.19135,0.52046 -0.65118,4.32093 -1.40209,6.32454 -0.37265,0.99431 -1.45019,3.20404 -2.39455,4.91052 -2.43231,4.39528 -2.83165,5.84435 -2.82713,10.25877 0.004,3.7047 -0.0208,3.54944 2.09983,13.22916 0.61403,2.80272 0.72736,3.95314 0.74283,7.54063 0.0198,4.60216 -0.0749,5.13297 -2.12405,11.90625 -0.75334,2.49002 -0.98819,3.77436 -1.08859,5.95312 -0.11633,2.52455 -0.0654,2.94342 0.55821,4.58903 0.72041,1.90113 1.80037,3.51788 3.16459,4.73754 0.44762,0.40018 0.67394,0.7276 0.50294,0.7276 -0.171,0 -0.79684,-0.50571 -1.39076,-1.1238 z m -4.63571,-2.32582 c -1.28326,-1.74816 -2.37729,-4.4287 -2.76147,-6.76604 -0.42659,-2.59537 -0.0447,-5.06672 1.58994,-10.28955 1.73186,-5.5334 2.21091,-8.27377 2.01196,-11.50937 -0.15635,-2.54279 -0.42631,-3.71581 -2.2835,-9.92188 -1.29098,-4.314 -1.71249,-7.08115 -1.4282,-9.37572 0.21107,-1.70355 0.21859,-1.67098 0.39289,1.70281 0.17868,3.45844 0.52787,5.14939 1.96698,9.525 1.72225,5.23649 2.12113,9.54125 1.29051,13.92754 -0.23038,1.21662 -1.01563,4.05751 -1.745,6.31308 -1.0813,3.34396 -1.35225,4.56506 -1.46772,6.61458 -0.21548,3.82473 0.81075,7.10547 3.16565,10.12032 0.42625,0.5457 0.65608,0.99218 0.51072,0.99218 -0.14535,0 -0.70459,-0.59983 -1.24276,-1.33295 z m -68.38742,-22.30866 c -6.94036,-2.46858 -10.36411,-6.59893 -14.1318,-17.04835 -2.67038,-7.40611 -4.48774,-9.82488 -8.49008,-11.29958 -0.30257,-0.11149 -0.39579,-0.24513 -0.21768,-0.3121 0.7374,-0.27727 3.0431,1.08511 4.50163,2.6599 1.53256,1.65472 3.41382,5.19698 4.44349,8.36674 2.35456,7.24838 4.94496,11.60996 8.52766,14.35843 1.74524,1.33887 5.02398,2.97865 6.49126,3.24646 0.5457,0.0996 0.99219,0.2869 0.99219,0.41623 0,0.33303 -0.18608,0.29895 -2.11667,-0.38773 z m 66.3794,-3.20052 c -0.0874,-0.0874 -0.0432,-0.78091 0.0982,-1.54118 0.1414,-0.76027 0.18777,-2.47678 0.10303,-3.81447 -0.258,-4.07293 -1.24849,-6.47301 -5.60233,-13.57513 -0.84749,-1.38245 -1.8184,-3.38431 -2.15758,-4.44859 -0.57051,-1.79013 -0.61223,-2.32511 -0.5571,-7.14375 0.0499,-4.36657 -0.0173,-5.46537 -0.41562,-6.7962 -0.59765,-1.99654 -1.56975,-4.05282 -2.86498,-6.0603 -1.14496,-1.77457 -1.22965,-2.31707 -0.47888,-3.06783 1.98326,-1.98326 5.90398,2.23936 8.58906,9.25044 1.46376,3.82203 2.8691,5.30046 5.03698,5.29891 3.21232,-0.002 5.56139,-4.37606 6.18001,-11.50664 l 0.22954,-2.64583 0.0281,2.11666 c 0.0396,2.98564 -0.78109,7.41483 -1.76239,9.51183 -1.32163,2.82425 -4.04579,5.17255 -6.00047,5.17255 -0.37444,0 -1.38269,-0.3653 -2.24057,-0.81178 -2.87337,-1.49543 -3.96761,-0.83351 -3.9663,2.39928 0.001,2.64953 0.58517,4.84164 2.50599,9.40487 2.8359,6.73715 3.60611,9.44884 3.75409,13.217 0.11649,2.96644 -0.11504,5.40389 -0.47876,5.04016 z m -6.64184,-13.04656 c -1.1612,-1.23567 -2.78198,-3.96968 -3.37494,-5.69299 -0.43557,-1.26589 -0.6237,-2.71664 -0.81392,-6.27665 -0.57715,-10.80112 -0.9408,-12.82584 -3.03118,-16.87725 -1.47952,-2.86748 -1.74824,-4.43813 -1.00457,-5.87164 1.33535,-2.57404 4.59905,-2.8426 7.78765,-0.64083 0.52798,0.36458 1.70293,1.62135 2.61098,2.79283 2.32222,2.99587 3.94953,3.68454 6.21863,2.63172 2.31093,-1.07223 3.56577,-3.27255 4.10751,-7.20236 0.31735,-2.30213 0.26377,-3.64484 -0.44216,-11.08039 -0.50446,-5.31345 -0.3755,-10.90612 0.31726,-13.758326 0.26508,-1.0914 0.52519,-1.79045 0.57801,-1.55344 0.0528,0.23701 -0.0928,1.24504 -0.32354,2.240066 -0.72606,3.1307 -0.77156,6.84695 -0.16452,13.43603 0.88203,9.57382 0.66591,12.79556 -1.04484,15.57589 -1.34734,2.1897 -2.75837,3.10978 -4.76914,3.10978 -1.67738,0 -2.99982,-0.91583 -5.02005,-3.47657 -1.48962,-1.88816 -2.09001,-2.42914 -3.45023,-3.10885 -1.86814,-0.93353 -3.12858,-1.03526 -4.45387,-0.35948 -1.36913,0.69814 -1.89866,1.59129 -1.91131,3.22381 -0.009,1.1729 0.21099,1.84716 1.33311,4.08431 2.19763,4.38142 2.50672,6.01358 2.91251,15.37949 0.19452,4.48963 0.34713,5.87159 0.795,7.19893 0.70974,2.1034 1.67001,3.84918 2.99796,5.45031 1.14488,1.38038 1.25248,1.95343 0.14565,0.77561 z m -63.70631,-8.71373 c -0.3638,-0.0614 -1.43536,-0.40275 -2.38125,-0.75859 -4.68137,-1.76113 -8.46667,-7.22687 -8.46667,-12.22537 0,-2.92461 0.62631,-4.40814 2.76948,-6.56007 1.46775,-1.47374 2.44746,-2.16633 4.63886,-3.27934 5.52027,-2.80375 7.14375,-4.37222 7.14375,-6.90166 0,-2.29403 -1.21126,-2.62151 -4.80084,-1.29799 -1.2051,0.44433 -3.56471,1.04152 -5.24357,1.32708 -3.63589,0.61843 -4.4995,0.87887 -5.25828,1.58578 -0.31477,0.29326 -0.57231,0.43025 -0.57231,0.30443 0,-0.31979 1.08406,-1.26153 1.71979,-1.49399 0.29104,-0.10643 1.95792,-0.41894 3.70417,-0.69447 1.95273,-0.30811 4.1181,-0.85992 5.62486,-1.43342 2.65373,-1.01006 3.14204,-1.0857 4.12309,-0.63871 1.35755,0.61854 1.57847,2.34715 0.56094,4.38908 -0.8323,1.67021 -2.26469,2.81286 -5.77984,4.61071 -5.97138,3.05411 -7.93574,5.28785 -8.27962,9.41503 -0.35695,4.28396 2.56049,9.40115 6.79327,11.91539 1.96825,1.16912 3.84817,1.52218 8.03251,1.50855 2.16231,-0.007 3.71012,0.0742 3.43959,0.18061 -0.51551,0.20272 -6.62589,0.23965 -7.76793,0.0469 z m -35.52597,-4.69016 c -3.81384,-1.56834 -5.58704,-4.13586 -11.80048,-17.08658 -1.9771,-4.1209 -3.39424,-6.27691 -5.53277,-8.41744 -1.94457,-1.94641 -4.35092,-3.2237 -6.07388,-3.22402 -1.4433,-2.6e-4 -3.42206,0.75724 -5.02178,1.92243 -2.90561,2.11637 -5.32459,2.634 -7.13905,1.52766 -2.37691,-1.44929 -2.23431,-5.14145 0.27025,-6.99718 0.64207,-0.47574 1.25087,-0.57352 4.36563,-0.70114 4.20301,-0.17221 5.4149,-0.57303 6.97739,-2.30772 0.99704,-1.10692 1.39661,-2.14359 1.67268,-4.3397 0.27836,-2.21431 1.71276,-3.24081 2.98376,-2.13529 0.29278,0.25466 0.95742,1.68067 1.47698,3.16891 1.12763,3.23003 2.00251,5.01191 3.34273,6.80815 2.03577,2.72847 3.06504,3.29834 5.98185,3.31194 2.34311,0.0109 3.54801,1.62131 2.17213,2.90313 -0.85536,0.79689 -2.09221,0.93049 -3.69277,0.39886 -2.89148,-0.96039 -5.12967,-4.30672 -7.42484,-11.10088 -1.56404,-4.62987 -1.87823,-5.3137 -2.51762,-5.47956 -1.08445,-0.28131 -1.7294,0.60937 -2.05194,2.83372 -0.37485,2.58509 -1.58669,4.39067 -3.66597,5.4621 -1.10644,0.57014 -4.53017,1.05378 -5.89352,0.83254 -1.48467,-0.24093 -3.44188,0.39545 -4.33112,1.40823 -0.93371,1.06344 -1.18932,1.89513 -0.97962,3.1874 0.3272,2.01628 1.91954,3.17096 4.04282,2.93163 1.03785,-0.11698 1.82997,-0.51452 5.39427,-2.70719 1.72209,-1.05938 3.6073,-1.57609 4.81697,-1.32027 2.62329,0.55479 6.15205,3.40883 8.40556,6.79839 0.60826,0.91488 2.12118,3.74702 3.36206,6.29363 4.99465,10.25038 5.64842,11.38484 7.82374,13.57626 1.69892,1.71148 3.74255,2.62973 5.85019,2.6286 1.95779,-10e-4 3.18362,-0.47687 4.65642,-1.80746 1.5846,-1.43159 2.68464,-3.91197 3.56898,-8.0474 0.29982,-1.40208 0.37165,-1.54197 0.3888,-0.7572 0.0262,1.20023 -1.09715,5.13327 -1.94291,6.8023 -0.8948,1.7658 -2.70987,3.35449 -4.40895,3.85906 -1.92396,0.57136 -3.28446,0.51081 -5.07599,-0.22591 z m 75.08844,-19.02228 c -0.66132,-1.00931 -0.95381,-2.29467 -0.65093,-2.8606 0.53225,-0.99451 1.80154,-0.34982 1.39534,0.70872 -0.09,0.23459 0.0938,0.67777 0.42913,1.03473 0.70426,0.74965 0.61923,1.56643 -0.1749,1.68 -0.37753,0.054 -0.72149,-0.13987 -0.99864,-0.56285 z m -56.92336,-0.43785 c -1.7489,-0.37346 -6.52695,-2.25464 -8.18013,-3.22063 -1.79273,-1.04754 -2.23705,-1.60532 -1.81395,-2.27718 0.45817,-0.72752 0.99086,-0.6891 3.06357,0.22096 3.08377,1.35399 5.30828,2.05974 7.94337,2.52013 4.89564,0.85533 11.1833,-0.0224 15.25932,-2.13022 0.4531,-0.23431 0.82383,-0.31548 0.82383,-0.18038 0,0.40793 -5.00519,3.26562 -7.40834,4.22975 -2.04839,0.82181 -2.5321,0.90976 -5.42396,0.98617 -1.74625,0.0461 -3.66492,-0.0207 -4.26371,-0.1486 z m 46.86163,-3.62234 c -2.08015,-1.09663 -2.52644,-2.24377 -1.9864,-5.10587 0.29599,-1.5687 0.28257,-1.8815 -0.11681,-2.72315 -0.28173,-0.5937 -0.80547,-1.11897 -1.39431,-1.39839 -1.80576,-0.85689 -2.70082,-0.79817 -6.1894,0.40608 -3.22792,1.11426 -3.26783,1.12064 -6.17371,0.98702 -3.64768,-0.16774 -5.94424,-0.91548 -9.45706,-3.07916 -3.24753,-2.00028 -4.02567,-2.24212 -6.6735,-2.07409 -1.7059,0.10826 -2.81102,0.39185 -5.44735,1.3979 -4.38211,1.67225 -5.57572,1.96826 -7.9517,1.97199 -2.30285,0.004 -3.84993,-0.62022 -5.72212,-2.30737 -1.43297,-1.29133 -1.60766,-1.92511 -0.79203,-2.87335 0.61627,-0.71645 0.72553,-0.74089 3.77992,-0.84539 2.69542,-0.0922 3.63727,-0.003 6.58489,0.6233 4.56571,0.97021 7.30632,0.96202 10.58333,-0.0316 1.30969,-0.39712 2.97656,-0.90018 3.70417,-1.1179 2.16768,-0.64864 5.17548,-0.52733 8.04607,0.32453 3.35287,0.99496 5.34533,0.88369 8.46909,-0.47297 1.22521,-0.53211 2.28479,-0.91035 2.35461,-0.84053 0.21962,0.21962 -3.18335,1.68642 -4.96555,2.14034 -1.96558,0.50063 -2.99509,0.41147 -6.29475,-0.54514 -3.43138,-0.99479 -5.24498,-0.91228 -9.60429,0.43698 -3.33005,1.03068 -3.7677,1.10276 -6.73643,1.10939 -2.42068,0.005 -3.70931,-0.13032 -5.42396,-0.57128 -2.90291,-0.74655 -9.47974,-0.85412 -10.16756,-0.1663 -0.72934,0.72933 -0.49842,1.58796 0.7087,2.63518 1.49887,1.30032 3.15875,2.00271 5.12866,2.17022 1.95723,0.16643 3.53733,-0.18637 7.08516,-1.58198 3.3011,-1.29855 3.837,-1.46103 5.93325,-1.79895 2.32459,-0.37472 4.39779,0.0659 6.40046,1.36029 6.48604,4.19213 11.26913,4.92151 17.0622,2.60185 3.16993,-1.2693 5.58652,-0.98547 7.11931,0.83615 0.70672,0.83989 0.73892,0.98622 0.57558,2.61567 -0.0952,0.9493 -0.23265,2.08319 -0.30552,2.51975 -0.24455,1.46513 0.18,1.59695 1.80187,0.55945 2.91938,-1.86751 7.25148,-3.86674 8.37876,-3.86674 1.36463,0 1.95575,0.77041 1.75062,2.28161 -0.32544,2.39748 -0.33976,2.69059 -0.1467,3.00298 0.34628,0.56028 1.28145,0.0368 2.12535,-1.18981 1.06042,-1.54127 2.64302,-4.86931 2.63566,-5.54253 -0.006,-0.51654 -1.022,-1.8305 -5.75979,-7.44637 -2.56569,-3.0412 -4.00651,-5.42339 -4.6328,-7.6597 -0.74239,-2.650816 -0.45588,-4.309946 1.01792,-5.894596 l 0.89955,-0.96721 0.0112,1.32292 c 0.006,0.7276 0.12118,1.49678 0.25559,1.70927 0.21238,0.33577 0.30711,0.33129 0.72355,-0.0342 1.14825,-1.00788 2.32268,-1.38438 4.31563,-1.38351 2.55941,0.001 3.40067,0.43985 6.48229,3.380706 2.97272,2.83693 4.39315,3.60381 6.67503,3.60381 2.05262,0 3.1222,-0.42407 4.67156,-1.85222 1.54363,-1.42288 2.10679,-3.032196 1.97441,-5.642256 -0.10722,-2.11404 -0.99329,-4.29217 -2.32677,-5.71967 -0.96694,-1.03511 -1.85989,-1.03885 -3.5859,-0.015 -1.40348,0.83251 -2.93271,1.02366 -4.23338,0.52914 -0.38278,-0.14553 -1.35039,-0.91903 -2.15025,-1.71889 -1.71094,-1.71095 -3.14899,-4.56866 -4.86019,-9.65819 -1.64462,-4.89151 -2.22455,-5.94854 -4.49997,-8.20208 -1.64052,-1.62475 -2.66861,-2.344 -5.67283,-3.96875 -4.71282,-2.54878 -6.4539,-3.771583 -7.82247,-5.493913 -1.5634,-1.967515 -2.75557,-2.5655 -7.01934,-3.52087 -4.22612,-0.946934 -6.11737,-1.743306 -7.5556,-3.18153 -2.7819,-2.781906 -3.07858,-6.582492 -0.74394,-9.530215 1.3347,-1.685208 3.247,-2.792341 6.85485,-3.968652 7.68401,-2.50531 14.5336,-2.32033 20.57384,0.555617 2.77066,1.319199 4.12904,2.25725 6.10841,4.218268 2.71525,2.690072 3.98068,4.803907 6.09795,10.186238 2.12775,5.408994 3.05812,6.675824 7.31762,9.964037 3.16601,2.44406 5.24157,4.61682 5.68036,5.94636 0.46019,1.39438 0.12611,1.40406 -0.40562,0.0117 -0.5643,-1.4776 -2.03103,-2.98524 -5.53822,-5.69269 -4.27884,-3.303133 -5.44271,-4.968283 -7.92914,-11.344222 -1.48963,-3.819824 -2.94491,-6.213878 -5.14577,-8.465167 -3.42488,-3.503348 -7.56458,-5.622914 -12.53209,-6.416537 -2.78629,-0.445148 -8.16974,-0.193186 -10.99649,0.514673 -4.504,1.12786 -9.04175,5.290854 -9.0492,8.301873 -0.003,1.165402 0.83513,2.956269 1.8076,3.862888 1.15503,1.076814 3.2004,1.875975 4.8045,1.877197 2.06879,0.0016 3.07629,-0.323472 7.44699,-2.402628 5.62797,-2.677234 7.65515,-2.884141 11.14568,-1.137595 4.95432,2.478982 8.05268,6.75636 10.87471,15.012888 2.0205,5.91145 3.5926,7.94292 6.70744,8.66737 0.69505,0.16166 1.78374,0.41955 2.41932,0.57311 1.28829,0.31125 3.77401,2.07444 4.81749,3.41718 1.11285,1.43202 2.5434,4.18863 3.20118,6.16851 0.55157,1.66024 0.61456,2.33172 0.60806,6.4823 -0.008,5.1287 -0.47102,7.55101 -1.91544,10.021206 -2.00407,3.42732 -6.61502,6.10886 -10.51273,6.11376 -2.00579,0.003 -3.21296,-0.43815 -5.82083,-2.12485 -2.75017,-1.77875 -3.5022,-2.10484 -4.84587,-2.10128 -1.60808,0.004 -5.34059,1.96507 -5.34059,2.80558 0,0.21499 0.30902,0.69991 0.68671,1.0776 0.68067,0.68066 0.7092,0.68472 3.24115,0.46143 3.03877,-0.268 5.30933,-0.24286 5.61458,0.0622 0.12156,0.12147 -0.8149,0.22927 -2.08102,0.23956 -3.11103,0.0253 -5.87202,0.21247 -5.87306,0.39819 -5.3e-4,0.0838 0.29491,0.43018 0.6564,0.76978 l 0.65725,0.61746 2.23454,-0.43905 c 2.46898,-0.4851 6.38186,-0.58795 6.63741,-0.17445 0.0933,0.15094 -0.1373,0.26458 -0.53683,0.26458 -0.3852,0 -1.67215,0.43109 -2.85989,0.95798 -1.18774,0.52689 -2.55986,1.07196 -3.04915,1.21127 l -0.88962,0.25329 0.65277,0.70696 c 0.35902,0.38883 1.17607,1.41221 1.81566,2.27419 1.11162,1.49812 1.16147,1.64394 1.13064,3.30729 -0.0314,1.69298 -0.47413,3.17372 -1.34866,4.51052 l -0.42771,0.6538 -0.28631,-1.01529 -0.28632,-1.01528 -0.85285,1.18869 c -0.94202,1.31296 -1.72843,1.67771 -2.32688,1.07925 -0.31262,-0.31261 -0.35844,-0.83291 -0.22558,-2.56137 0.19402,-2.52409 -0.0745,-2.9901 -1.582,-2.74547 -1.89552,0.30761 -9.30094,4.39553 -9.1076,5.02757 0.0541,0.177 0.62827,0.59742 1.27584,0.93428 0.93453,0.48613 1.47759,0.58923 2.63262,0.4998 0.80036,-0.062 1.66356,-0.20148 1.91823,-0.31005 0.26215,-0.11175 0.46302,-0.0837 0.46302,0.0647 0,0.68848 -3.92112,0.80148 -5.15938,0.14869 z m 14.92,-5.91036 0.004,-1.19063 -0.79092,1.53253 c -0.64522,1.25023 -0.75647,1.71324 -0.60391,2.51354 l 0.18701,0.98102 0.6004,-1.32292 c 0.33566,-0.7396 0.60194,-1.8479 0.6039,-2.51354 z m 10.69082,-11.77107 c 4.5176,-1.17669 7.79019,-4.2741 9.06784,-8.582436 0.43969,-1.48264 0.90594,-5.41493 0.8964,-7.56003 -0.0107,-2.41795 -0.65338,-5.51954 -1.53313,-7.39952 -1.64046,-3.50558 -3.80306,-4.97809 -8.77487,-5.97478 -3.32043,-0.66565 -4.87939,-1.42345 -6.3434,-3.0835 -1.29746,-1.4712 -1.97016,-2.72194 -3.25856,-6.0586 -1.66782,-4.31928 -2.56793,-5.756293 -5.42251,-8.656928 -2.04499,-2.077988 -2.96952,-2.708177 -4.34795,-2.963717 -0.86619,-0.160576 -1.08087,-0.08618 -1.78594,0.618889 -0.69358,0.693584 -0.80141,0.992968 -0.80141,2.22517 0,1.922643 0.97702,3.433343 3.31572,5.126886 7.67103,5.55488 7.88596,5.78009 9.10467,9.54005 1.1035,3.40446 2.85997,6.2935 4.40798,7.25022 1.15821,0.71581 2.26753,0.63931 3.67528,-0.25346 1.6349,-1.03682 2.78066,-1.21643 4.37716,-0.68616 2.53713,0.8427 5.10307,3.92681 5.93195,7.12989 0.58063,2.24376 0.5286,6.20153 -0.11459,8.7164 -1.02985,4.026676 -3.58144,7.459656 -6.55692,8.821876 -1.22113,0.55905 -1.72327,0.64322 -3.20354,0.53696 -1.95606,-0.14042 -2.99522,-0.59257 -5.99791,-2.60973 -2.74243,-1.84231 -3.96266,-2.34646 -5.67938,-2.34646 -1.82446,0 -3.16362,0.60003 -4.96094,2.22282 -1.38631,1.2517 -1.66326,1.88344 -1.08097,2.46574 0.23441,0.2344 0.60728,0.0885 1.55894,-0.61011 1.70224,-1.24956 2.90017,-1.70882 4.45725,-1.70882 1.6845,0 2.348,0.26056 4.87732,1.91532 3.42231,2.23899 5.29425,2.67867 8.19151,1.92403 z m -20.15654,-7.808096 c 0.54264,-0.75842 0.64275,-1.15585 0.55305,-2.19564 -0.12509,-1.45004 -0.44525,-1.49873 -1.15484,-0.17564 -0.47906,0.89326 -0.72504,4.081046 -0.27383,3.548676 0.11717,-0.13825 0.5112,-0.66808 0.87562,-1.177396 z m -2.08084,24.018746 c -0.32742,-0.15791 -0.59508,-0.41775 -0.5948,-0.57741 10e-4,-0.6323 3.76358,-2.7502 4.96042,-2.79223 0.68716,-0.0241 0.28526,0.50015 -0.98036,1.27889 -0.72111,0.4437 -1.49807,1.16829 -1.72659,1.6102 -0.44311,0.85687 -0.71502,0.93565 -1.65867,0.48055 z m -51.79219,-2.16385 c -3.71118,-1.1737 -5.68054,-3.56812 -5.68596,-6.91321 -0.002,-0.99062 -0.15401,-1.81097 -0.40229,-2.16545 -0.21985,-0.31387 -0.29904,-0.63289 -0.17598,-0.70894 0.12305,-0.076 0.78827,0.81077 1.47826,1.97073 1.71204,2.87814 2.32541,3.54661 4.01099,4.37129 1.25969,0.6163 1.76957,0.70812 3.89045,0.70054 2.75862,-0.01 4.28168,-0.42785 8.40121,-2.30571 3.06762,-1.39835 5.1042,-1.81387 7.20513,-1.47004 1.48802,0.24352 3.10632,0.97135 3.10632,1.39706 0,0.11711 -0.46533,-0.0245 -1.03406,-0.31461 -2.62816,-1.34079 -3.83946,-1.00146 -9.25608,2.59298 -3.76173,2.49627 -5.71818,3.22465 -8.5893,3.19776 -1.0397,-0.01 -2.36661,-0.16832 -2.94869,-0.3524 z m 1.5875,-3.91932 c -1.28343,-0.45095 -4.28975,-2.54443 -5.1465,-3.58382 -1.14215,-1.38562 -0.80419,-1.35034 0.63252,0.066 2.58236,2.5458 5.47983,3.79955 8.07153,3.4926 1.63513,-0.19365 4.08849,-1.06598 5.35477,-1.90397 0.55525,-0.36745 1.00956,-0.55608 1.00956,-0.41917 0,0.38435 -2.61233,1.77715 -4.21521,2.2474 -1.61138,0.47273 -4.50295,0.52387 -5.70667,0.10093 z m 77.92579,-3.37749 c -0.65514,-0.65514 -0.52395,-1.0126 1.11829,-3.04709 1.51272,-1.87403 3.63937,-5.67261 5.70383,-10.18808 2.13374,-4.666986 2.96796,-9.423316 2.47406,-14.105946 -0.57473,-5.44891 -2.2143,-10.81036 -4.82193,-15.76783 -1.27561,-2.42511 -1.6164,-3.6223 -0.52375,-1.83992 2.33378,3.80698 4.45342,9.63389 5.2845,14.52714 1.43518,8.45009 0.20003,16.05031 -3.50672,21.577766 -1.58489,2.36338 -1.81279,2.85068 -1.59662,3.414 0.30827,0.80335 1.10942,0.35019 2.71487,-1.53566 3.23923,-3.80498 4.14268,-6.23553 5.71634,-15.378636 0.75415,-4.38174 1.61337,-8.22102 1.98047,-8.84939 0.34885,-0.59716 0.3127,-0.163 -0.14046,1.6866 -0.56716,2.31494 -1.09996,4.95072 -1.57777,7.80521 -0.77977,4.6585 -1.25467,6.73747 -2.00755,8.788356 -1.05656,2.87817 -1.55721,3.80295 -4.43566,8.19345 -3.23043,4.92737 -4.92284,6.17908 -6.3819,4.72003 z m -67.07787,-4.95492 c -0.29104,-0.0688 -1.77932,-0.56097 -3.30729,-1.09379 -2.57927,-0.89941 -2.98646,-0.96696 -5.68855,-0.94368 -1.73465,0.0149 -3.47448,0.18709 -4.30666,0.42613 -0.76794,0.22058 -1.44906,0.31561 -1.5136,0.21119 -0.0645,-0.10443 0.44471,-0.49403 1.13167,-0.86578 3.61097,-1.95411 7.57096,-2.01839 13.00354,-0.21108 4.40536,1.46557 5.6134,1.56581 9.5749,0.79451 l 3.19638,-0.62234 3.08293,0.63003 c 3.33054,0.68062 5.85592,0.77088 7.72334,0.27603 1.72695,-0.45762 5.00597,-1.94141 5.01183,-2.26791 0.006,-0.33043 -1.14284,-1.41623 -2.1762,-2.0569 -1.2534,-0.7771 -3.83359,-1.30225 -5.46537,-1.11236 -2.12252,0.24698 -3.70117,0.78358 -7.30234,2.48212 l -3.175,1.49754 h -2.64583 c -2.32971,0 -2.83032,-0.0864 -4.18991,-0.72337 -1.53925,-0.72111 -3.74194,-2.2809 -3.52598,-2.49686 0.0626,-0.0625 0.79361,0.36255 1.6246,0.94466 2.163,1.51519 4.51466,2.242 6.73919,2.08283 1.46449,-0.10478 2.35896,-0.40415 5.19095,-1.73734 1.88186,-0.88591 4.19547,-1.80853 5.14136,-2.05027 2.33481,-0.59672 5.535,-0.42778 7.08952,0.37425 1.37414,0.70896 3.22923,2.3397 3.22923,2.83868 0,0.42789 -1.83332,1.3859 -4.23334,2.21217 -2.56125,0.88178 -5.19355,0.98169 -8.02453,0.30459 -3.46436,-0.8286 -5.43028,-0.74614 -8.75831,0.36732 -2.29012,0.76621 -3.12421,0.92075 -4.8326,0.89535 -1.13562,-0.0169 -2.30289,-0.087 -2.59393,-0.15572 z m 53.85618,-11.176896 c -1.98592,-2.02972 -3.96223,-3.82569 -4.3918,-3.99106 -0.4341,-0.1671 -1.7213,-0.26137 -2.89772,-0.21221 l -2.11666,0.0885 -0.0807,-1.11018 c -0.0717,-0.98654 0.002,-1.15288 0.66146,-1.49362 1.26049,-0.65128 2.95429,-0.99895 3.95347,-0.8115 1.29404,0.24276 2.92268,1.88049 4.31724,4.34134 1.5538,2.74184 2.71451,4.43378 3.94782,5.754686 0.70407,0.75407 0.91283,1.12448 0.63376,1.12448 -0.22888,0 -2.04099,-1.66068 -4.02691,-3.690396 z m 5.82766,1.16 c -1.98126,-0.85972 -5.39114,-4.16872 -7.28451,-7.069 -0.905,-1.3863 -0.25136,-0.96712 0.85213,0.54647 1.65892,2.27542 4.26933,4.89876 5.71228,5.74056 2.37975,1.38832 4.66855,0.86934 4.66855,-1.05858 0,-1.6461 -1.32533,-2.71276 -5.15937,-4.15238 -3.03809,-1.14075 -4.84828,-2.33138 -5.90999,-3.88724 -0.51696,-0.75756 -1.38843,-2.91672 -2.25643,-5.59049 -2.0793,-6.40506 -3.5545,-9.05054 -6.81274,-12.21727 -5.22661,-5.07982 -11.91769,-7.12596 -24.84064,-7.596273 -7.77773,-0.28306 -8.74084,-0.62777 -14.34426,-5.133971 -6.00837,-4.831847 -7.31857,-5.352351 -14.75991,-5.863648 -1.38244,-0.09499 -3.5851,-0.358828 -4.89479,-0.586311 -1.30969,-0.227483 -3.57187,-0.412988 -5.02708,-0.412231 -1.58994,7.93e-4 -2.43466,-0.08328 -2.11667,-0.210752 0.86462,-0.346596 3.81118,-0.276391 6.21771,0.148143 1.23693,0.218205 3.88129,0.533921 5.87636,0.701591 3.15496,0.265149 3.98756,0.245755 6.3926,-0.148921 4.50894,-0.739934 5.57791,-0.327028 9.82375,3.794601 5.46665,5.306719 8.67795,6.678899 17.64023,7.537649 8.88171,0.851023 13.77696,2.413583 18.35452,5.858753 4.36647,3.2863 6.4443,6.61812 8.98193,14.40261 1.5057,4.61893 1.66065,4.93538 3.01615,6.15999 1.23386,1.11473 2.48134,1.78874 5.53576,2.991 2.61652,1.02989 3.94152,1.97774 4.44324,3.17852 0.52705,1.26142 0.46655,1.63636 -0.4046,2.50751 -0.89002,0.89003 -2.19089,1.016326 -3.70422,0.35967 z m -55.84738,-2.96536 c 0,-0.29329 2.13205,-1.88454 4.25,-3.172 2.30243,-1.39959 6.03514,-2.86688 8.27754,-3.2538 2.99033,-0.51598 7.49938,-0.19667 10.59167,0.75005 1.43771,0.44016 2.70851,0.95321 2.82402,1.1401 0.2612,0.42263 0.5886,2.10861 0.43859,2.25861 -0.0608,0.0608 -1.46843,-0.23946 -3.12797,-0.66736 -3.84322,-0.99093 -8.06902,-1.39807 -11.21531,-1.08054 -3.67488,0.37088 -6.62039,1.31582 -10.30792,3.30684 -0.95184,0.51393 -1.73062,0.83708 -1.73062,0.7181 z m 69.97726,-2.46135 c 0.326,-2.93585 -0.59245,-7.80819 -2.03944,-10.81918 -1.95356,-4.06509 -4.59031,-6.8672 -8.85893,-9.41451 -4.57807,-2.73198 -6.50975,-5.44561 -8.27502,-11.624813 -1.48865,-5.210924 -3.30705,-8.504071 -6.35752,-11.513553 -4.82877,-4.763878 -10.54229,-5.850101 -15.04313,-2.859921 -1.14903,0.763373 -1.91586,0.830022 -0.9412,0.0818 1.0874,-0.834765 3.32225,-1.727361 5.07929,-2.028658 1.56127,-0.267729 2.10306,-0.249407 3.60821,0.122026 3.63162,0.896191 6.99334,3.276113 9.69835,6.865932 2.33548,3.099424 2.64052,3.763536 4.5181,9.836484 1.85687,6.005993 3.32072,8.062853 7.50382,10.543723 5.13035,3.04266 8.0951,6.34408 9.89881,11.02293 1.36548,3.54207 2.11962,9.73257 1.32368,10.86568 -0.20224,0.28791 -0.23382,-0.008 -0.11502,-1.07794 z m -104.87822,0.0925 c -0.91919,-0.74464 -0.49744,-1.13123 1.23412,-1.13123 1.1734,0 1.70217,-0.14599 2.4792,-0.68447 1.13209,-0.78454 1.91451,-0.75703 2.03305,0.0715 0.11431,0.79887 -1.85967,1.92555 -3.70742,2.11608 -1.13818,0.11735 -1.52131,0.0475 -2.03895,-0.37186 z m -1.48558,-6.17827 c -0.0959,-0.30201 -0.10546,-0.61793 -0.0213,-0.70204 0.0841,-0.0841 -0.0864,-0.54014 -0.37884,-1.01338 -0.48062,-0.77766 -0.49227,-0.89994 -0.12113,-1.27108 0.59255,-0.59255 1.07038,-0.29115 1.55651,0.98177 0.53902,1.41141 0.54156,2.18843 0.008,2.39325 -0.67701,0.25979 -0.85874,0.1921 -1.04302,-0.38852 z m 0.53549,-8.54409 c -1.69816,-0.79763 -2.02169,-1.18223 -3.45177,-4.10337 -1.24592,-2.54495 -2.51101,-4.16628 -3.93995,-5.04941 -0.47207,-0.29175 -2.3358,-1.01719 -4.14162,-1.61209 -1.80583,-0.59489 -3.76953,-1.36422 -4.36379,-1.70963 -1.1002,-0.63947 -2.73809,-2.28091 -3.27263,-3.279713 -0.50503,-0.94365 0.0794,-0.5758 0.91609,0.57657 1.32936,1.831003 2.68499,2.653513 6.36982,3.864813 4.08097,1.34153 4.84951,1.78131 7.33345,4.19636 2.74206,2.66603 3.34476,2.97832 5.7502,2.97952 1.30442,5.3e-4 2.50731,0.18156 3.4798,0.52336 2.89964,1.01915 4.83789,1.17687 8.44916,0.68755 1.80148,-0.2441 3.57306,-0.5125 3.93687,-0.59644 0.42679,-0.0985 0.56759,-0.0624 0.39687,0.10159 -0.14552,0.13983 -2.94349,1.11051 -6.21771,2.15707 -5.24094,1.6752 -6.19052,1.90178 -7.9375,1.89401 -1.51741,-0.007 -2.29568,-0.15504 -3.30729,-0.63019 z m 7.54063,-1.49013 c 0.33637,-0.21738 0.32379,-0.2571 -0.0825,-0.26053 -0.26366,-0.002 -1.51382,-0.29286 -2.77813,-0.64585 -1.26431,-0.35299 -3.12255,-0.72181 -4.12943,-0.8196 -1.66685,-0.16189 -1.79336,-0.14047 -1.41352,0.23936 0.22944,0.22944 0.98168,0.71732 1.67165,1.08418 1.09225,0.58076 1.58303,0.6665 3.79478,0.66297 1.39715,-0.002 2.71887,-0.11946 2.93715,-0.26053 z m 10.9802,-3.55524 c -0.87312,-0.19646 -2.29983,-0.67323 -3.17045,-1.0595 -1.90732,-0.8462 -2.95076,-1.09162 -6.82461,-1.60513 -1.63324,-0.2165 -4.27921,-0.73438 -5.87994,-1.15085 -1.60072,-0.41648 -5.48157,-1.42352 -8.6241,-2.23788 -7.11443,-1.84363 -8.49671,-2.35831 -9.96258,-3.7095 -2.96562,-2.733623 -4.59365,-6.78204 -5.763,-14.330851 -1.02219,-6.598843 -2.04798,-8.242072 -7.55679,-12.10529 -1.97865,-1.387589 -3.14374,-2.620037 -4.00836,-4.240086 -0.49832,-0.933709 -0.5962,-1.529805 -0.5962,-3.630665 0,-2.120596 0.0958,-2.69327 0.61281,-3.663212 0.87509,-1.641729 2.6053,-3.268821 4.42722,-4.163372 1.46178,-0.717722 1.78878,-0.772374 4.62136,-0.772374 2.91383,0 3.12649,0.03851 4.82175,0.87308 2.22774,1.096711 4.23693,2.920828 5.94883,5.400852 1.34795,1.952757 3.24677,5.452393 3.24677,5.983962 0,0.15948 0.25033,0.959033 0.55629,1.776783 1.1811,3.156759 3.11986,4.274664 6.95882,4.012523 2.90448,-0.19833 4.96915,-0.965642 11.75612,-4.369044 6.50065,-3.259825 8.31369,-3.834373 12.04668,-3.817554 4.94911,0.02231 8.80441,2.170282 10.27304,5.723636 0.61836,1.496116 0.61008,4.473017 -0.0163,5.847011 -0.68281,1.497878 -1.7894,2.724515 -3.33317,3.694782 -3.62923,2.280978 -7.03211,2.643921 -15.94754,1.700922 -4.36333,-0.461516 -6.52202,-0.154713 -9.48609,1.348211 -2.37538,1.204428 -4.5842,3.167231 -5.43007,4.825274 -0.28499,0.558626 -0.81612,2.172682 -1.1803,3.58679 -1.13901,4.422789 -2.8443,6.416642 -5.66229,6.620482 -1.33375,0.0965 -1.74893,0.0109 -2.72649,-0.561993 -2.0869,-1.22301 -3.4999,-4.075125 -3.7942,-7.658509 -0.12029,-1.464659 0.0117,-2.846478 0.56198,-5.883042 1.31569,-7.260341 1.17345,-12.804235 -0.39358,-15.339727 -0.50966,-0.824653 -2.43863,-2.803953 -3.70793,-3.804681 -1.09699,-0.86487 -0.45264,-0.883367 1.24369,-0.0357 1.77838,0.888666 3.9496,3.011609 4.815,4.707945 0.30849,0.604684 0.75149,1.905635 0.98445,2.891004 0.42722,1.807049 0.41367,5.664417 -0.0523,14.888453 -0.1431,2.832526 -0.11114,3.124954 0.46263,4.233334 0.42678,0.824433 0.9349,1.346133 1.65208,1.696238 1.0335,0.504523 1.03813,0.504341 2.14889,-0.08492 1.34652,-0.714324 1.54684,-1.122545 2.2526,-4.59051 0.30326,-1.490141 0.76755,-3.185599 1.03175,-3.767682 0.94009,-2.071195 3.33992,-4.025247 6.45452,-5.25558 3.42557,-1.353167 4.67872,-1.542169 10.75672,-1.622362 6.39448,-0.08437 8.10202,-0.369519 11.3068,-1.888206 2.33771,-1.107795 3.2458,-2.244598 3.24429,-4.061415 -0.003,-3.206655 -3.05954,-5.111771 -8.20109,-5.111089 -3.82674,5.29e-4 -6.61088,0.862605 -12.83229,3.973457 -2.86168,1.430909 -5.16391,2.187771 -7.42664,2.441525 -4.3474,0.487542 -6.7705,-0.696767 -7.93411,-3.877861 -1.7605,-4.812855 -3.3239,-7.606196 -5.76911,-10.307706 -3.77188,-4.167229 -9.55736,-5.25373 -14.02714,-2.634263 -3.36119,1.969789 -4.94831,6.217412 -3.62863,9.71137 0.75972,2.011429 1.92462,3.286387 5.15095,5.637609 4.82961,3.519644 5.57704,4.824987 6.76669,11.817742 0.93776,5.512135 1.55198,7.646839 2.96504,10.304904 1.20624,2.269002 2.48113,3.704072 4.19149,4.718085 1.0655,0.63169 1.45478,0.70588 3.70416,0.70588 2.24473,0 2.64088,-0.0751 3.70417,-0.70235 2.06683,-1.219203 3.80226,-3.736683 4.76823,-6.916932 1.08957,-3.587168 2.21251,-5.118624 4.6536,-6.346563 3.49461,-1.757886 8.16264,-2.394601 14.56641,-1.986843 5.26124,0.335004 7.8425,0.09671 10.47634,-0.967148 0.89397,-0.361087 1.68077,-0.601141 1.74846,-0.53345 0.21122,0.211219 -0.0848,0.368035 -2.10493,1.115227 l -1.96123,0.725397 -8.0698,0.0094 c -8.55562,0.0099 -9.86723,0.151493 -13.26748,1.431999 -3.08321,1.161111 -4.61247,2.900696 -5.56279,6.32786 -1.28484,4.63352 -0.1276,6.928003 4.63493,9.189703 2.73041,1.29666 4.39837,1.42714 7.76636,0.60754 2.0837,-0.50708 3.29356,-0.63024 6.1644,-0.62756 4.21445,0.004 5.00066,0.19981 10.58334,2.63667 7.73063,3.37444 9.68337,3.50247 15.58419,1.02172 3.36029,-1.41268 7.82441,-2.80054 11.03911,-3.43197 3.34806,-0.65762 8.31761,-0.60076 11.02339,0.12613 2.71211,0.7286 7.44765,3.18901 6.99981,3.63685 -0.089,0.089 -0.55652,-0.13462 -1.03902,-0.49684 -1.28777,-0.96675 -3.2735,-1.90676 -5.51416,-2.61032 -1.75634,-0.55149 -2.46632,-0.61874 -6.34332,-0.60082 -4.15642,0.0192 -4.54199,0.0669 -8.0458,0.99532 -2.0241,0.53634 -4.703,1.40353 -5.95313,1.9271 -1.25012,0.52357 -3.22545,1.29447 -4.38962,1.71312 -3.92597,1.4118 -6.9843,0.95332 -13.90116,-2.08395 -1.95874,-0.8601 -4.33524,-1.78114 -5.28113,-2.04676 -1.86902,-0.52485 -6.32748,-0.68701 -8.53281,-0.31036 l -1.25677,0.21466 v 1.16559 c 0,1.61219 1.08245,2.65034 3.98766,3.82447 1.88952,0.76363 2.56319,0.9035 4.41172,0.91595 1.19993,0.008 2.18219,0.10398 2.18282,0.21312 5.2e-4,0.10914 -0.22211,0.19844 -0.49496,0.19844 -0.27285,0 -0.8384,0.0543 -1.25677,0.12077 -0.41838,0.0664 -1.47506,-0.04 -2.34818,-0.23643 z m 41.75781,-12.195833 c -1.66391,-0.87315 -2.37073,-1.01255 -8.58007,-1.692169 -6.33434,-0.693301 -11.53245,-4.201425 -13.47631,-9.094954 -0.61546,-1.549382 -0.64715,-1.885434 -0.57401,-6.087412 0.0875,-5.027141 -0.15893,-6.465257 -1.64834,-9.619212 -1.21682,-2.576711 -3.93693,-5.356072 -6.28297,-6.419816 -2.97235,-1.347729 -4.77145,-1.707954 -8.55027,-1.711986 -3.19843,-0.0034 -3.72712,0.07293 -7.54063,1.088848 -2.25557,0.600884 -4.93448,1.172405 -5.95312,1.270047 -1.96047,0.187918 -6.16316,-0.25554 -6.61459,-0.697952 -0.17297,-0.169527 0.14766,-0.18591 0.92605,-0.04733 0.65484,0.116591 2.6789,0.202512 4.49791,0.190936 3.00034,-0.0191 3.69458,-0.123459 7.48006,-1.124479 3.72148,-0.984096 4.49665,-1.103434 7.16757,-1.103434 6.75057,0 11.74243,2.498265 14.61244,7.313051 1.96049,3.28897 2.60158,6.17355 2.26168,10.17651 -0.28928,3.406892 0.009,5.639594 1.02244,7.646704 1.59156,3.152884 5.35954,6.108663 9.24171,7.249655 0.79032,0.23228 3.17157,0.599816 5.29167,0.816748 2.1201,0.216934 4.40462,0.563734 5.07671,0.770675 1.5949,0.49106 3.40823,1.42256 3.40823,1.75078 0,0.14257 -0.0298,0.24188 -0.0661,0.22069 -0.0364,-0.0212 -0.80139,-0.42434 -1.70001,-0.8959 z m -18.15414,-7.538447 c -0.6889,-0.606394 -1.53872,-1.726793 -1.95912,-2.582892 l -0.74246,-1.511945 v -5.973858 -5.973855 l -0.86225,-1.674654 c -0.98447,-1.912019 -0.97255,-2.479058 0.0158,-0.752051 1.36723,2.389023 1.46235,3.201143 1.23422,10.537959 -0.10277,3.305125 -0.0649,3.674896 0.50664,4.951349 0.35365,0.789784 1.17844,1.903989 1.92946,2.606479 1.63307,1.527543 1.53366,1.831102 -0.1223,0.373468 z m 44.00182,-7.335983 c -1.01414,-1.942587 -4.82009,-5.591985 -7.0159,-6.72732 -4.46846,-2.310402 -6.25896,-2.600404 -17.59479,-2.849776 -9.77949,-0.215136 -11.10045,-0.358514 -14.87628,-1.614673 -2.45354,-0.816258 -5.01689,-2.467562 -6.81607,-4.390887 -1.46014,-1.560891 -3.12158,-4.207754 -2.82646,-4.50287 0.0677,-0.06766 0.40135,0.450196 0.74154,1.150787 0.90879,1.87154 4.23437,5.121073 6.31358,6.169199 4.55444,2.295882 7.03728,2.695424 17.19911,2.767708 6.35633,0.04521 8.63158,0.15702 10.71562,0.526561 5.21611,0.924912 8.37642,2.501392 11.64167,5.807297 1.88517,1.908643 3.95996,4.920745 3.3895,4.920745 -0.11848,0 -0.51066,-0.565547 -0.87152,-1.256771 z m 2.60266,-1.665595 c -3.1682,-5.946425 -8.52743,-9.977188 -15.3481,-11.54354 -1.62088,-0.372232 -3.56791,-0.45108 -11.73296,-0.475136 -10.48945,-0.0309 -10.32577,-0.01291 -13.49375,-1.482714 -1.57176,-0.729224 -4.15233,-3.237156 -6.43257,-6.251496 -1.80996,-2.392651 -4.05111,-4.376327 -5.85132,-5.179081 -0.64427,-0.287292 -2.01349,-0.675289 -3.04271,-0.862214 -1.75136,-0.318076 -1.79383,-0.341393 -0.66257,-0.363741 1.44533,-0.02855 3.50495,0.547401 5.00554,1.399752 0.60086,0.341294 2.48455,1.80748 4.18597,3.25819 3.62774,3.093175 5.22298,4.243544 7.42844,5.356857 2.73763,1.381951 4.13997,1.622515 11.67235,2.002319 8.99817,0.453718 12.18321,1.138555 17.85937,3.840086 3.23375,1.539079 5.82884,3.511574 7.96438,6.053629 1.5356,1.827903 4.01352,5.995374 3.7321,6.276793 -0.0728,0.07276 -0.65064,-0.840605 -1.28417,-2.029704 z"
       id="path458"
       inkscape:export-filename="melting-girl.svg"
       inkscape:export-xdpi="1000"
       inkscape:export-ydpi="1000" /></g></svg>
